<?xml version="1.0" encoding="utf-8" standalone="no"?>
<!DOCTYPE svg PUBLIC "-//W3C//DTD SVG 1.1//EN"
  "http://www.w3.org/Graphics/SVG/1.1/DTD/svg11.dtd">
<svg xmlns:xlink="http://www.w3.org/1999/xlink" width="856.416875pt" height="351.54968pt" viewBox="0 0 856.416875 351.54968" xmlns="http://www.w3.org/2000/svg" version="1.1">
 <metadata>
  <rdf:RDF xmlns:dc="http://purl.org/dc/elements/1.1/" xmlns:cc="http://creativecommons.org/ns#" xmlns:rdf="http://www.w3.org/1999/02/22-rdf-syntax-ns#">
   <cc:Work>
    <dc:type rdf:resource="http://purl.org/dc/dcmitype/StillImage"/>
    <dc:date>2026-02-23T14:09:52.921539</dc:date>
    <dc:format>image/svg+xml</dc:format>
    <dc:creator>
     <cc:Agent>
      <dc:title>Matplotlib v3.10.8, https://matplotlib.org/</dc:title>
     </cc:Agent>
    </dc:creator>
   </cc:Work>
  </rdf:RDF>
 </metadata>
 <defs>
  <style type="text/css">*{stroke-linejoin: round; stroke-linecap: butt}</style>
 </defs>
 <g id="figure_1">
  <g id="patch_1">
   <path d="M -0 351.54968 
L 856.416875 351.54968 
L 856.416875 0 
L -0 0 
z
" style="fill: #ffffff"/>
  </g>
  <g id="axes_1">
   <g id="patch_2">
    <path d="M 58.441875 293.308912 
L 849.216875 293.308912 
L 849.216875 37.635125 
L 58.441875 37.635125 
z
" style="fill: #ffffff"/>
   </g>
   <g id="FillBetweenPolyCollection_1">
    <defs>
     <path id="m45af25d16c" d="M 94.386193 -226.13527 
L 94.386193 -128.125434 
L 132.222318 -156.128611 
L 170.058442 -162.779863 
L 207.894566 -158.751166 
L 245.730691 -163.452075 
L 283.566815 -114.242993 
L 321.40294 -147.099398 
L 359.239064 -179.071251 
L 397.075188 -160.812759 
L 434.911313 -108.038516 
L 472.747437 -167.030522 
L 510.583562 -136.385982 
L 548.419686 -167.186337 
L 586.25581 -134.372755 
L 624.091935 -139.945107 
L 661.928059 -123.463659 
L 699.764184 -116.697504 
L 737.600308 -124.185797 
L 775.436432 -138.456222 
L 813.272557 -106.20384 
L 813.272557 -267.31213 
L 813.272557 -267.31213 
L 775.436432 -269.260768 
L 737.600308 -261.137248 
L 699.764184 -248.911817 
L 661.928059 -267.431423 
L 624.091935 -252.826129 
L 586.25581 -257.686107 
L 548.419686 -254.742874 
L 510.583562 -267.388264 
L 472.747437 -250.955944 
L 434.911313 -257.041814 
L 397.075188 -255.410405 
L 359.239064 -261.175149 
L 321.40294 -250.785416 
L 283.566815 -277.040016 
L 245.730691 -261.756879 
L 207.894566 -258.000988 
L 170.058442 -254.818677 
L 132.222318 -265.983983 
L 94.386193 -226.13527 
z
" style="stroke: #2e75b6; stroke-opacity: 0.2"/>
    </defs>
    <g clip-path="url(#pd68d722f66)">
     <use xlink:href="#m45af25d16c" x="0" y="351.54968" style="fill: #2e75b6; fill-opacity: 0.2; stroke: #2e75b6; stroke-opacity: 0.2"/>
    </g>
   </g>
   <g id="FillBetweenPolyCollection_2">
    <defs>
     <path id="m87dc7aaaee" d="M 94.386193 -171.965813 
L 94.386193 -69.862304 
L 132.222318 -106.648323 
L 170.058442 -138.21289 
L 207.894566 -129.837388 
L 245.730691 -124.902967 
L 283.566815 -94.994073 
L 321.40294 -126.943388 
L 359.239064 -151.28577 
L 397.075188 -135.276942 
L 434.911313 -83.510148 
L 472.747437 -141.167626 
L 510.583562 -126.578428 
L 548.419686 -145.195957 
L 586.25581 -106.602925 
L 624.091935 -104.135156 
L 661.928059 -114.081627 
L 699.764184 -101.050716 
L 737.600308 -106.798152 
L 775.436432 -122.778383 
L 813.272557 -89.823947 
L 813.272557 -239.277992 
L 813.272557 -239.277992 
L 775.436432 -248.33931 
L 737.600308 -222.848681 
L 699.764184 -214.079166 
L 661.928059 -242.467768 
L 624.091935 -226.538668 
L 586.25581 -220.740983 
L 548.419686 -227.856291 
L 510.583562 -241.060125 
L 472.747437 -210.681609 
L 434.911313 -217.636483 
L 397.075188 -215.644266 
L 359.239064 -232.16403 
L 321.40294 -224.8794 
L 283.566815 -255.006192 
L 245.730691 -229.045255 
L 207.894566 -223.030588 
L 170.058442 -217.295031 
L 132.222318 -227.860193 
L 94.386193 -171.965813 
z
" style="stroke: #e8702a; stroke-opacity: 0.2"/>
    </defs>
    <g clip-path="url(#pd68d722f66)">
     <use xlink:href="#m87dc7aaaee" x="0" y="351.54968" style="fill: #e8702a; fill-opacity: 0.2; stroke: #e8702a; stroke-opacity: 0.2"/>
    </g>
   </g>
   <g id="FillBetweenPolyCollection_3">
    <defs>
     <path id="mcdda5aa20a" d="M 94.386193 -276.530305 
L 94.386193 -247.841602 
L 132.222318 -262.722408 
L 170.058442 -260.740442 
L 207.894566 -262.161911 
L 245.730691 -269.049914 
L 283.566815 -265.485154 
L 321.40294 -265.769953 
L 359.239064 -273.05887 
L 397.075188 -262.07202 
L 434.911313 -257.785973 
L 472.747437 -269.079906 
L 510.583562 -276.942197 
L 548.419686 -272.170217 
L 586.25581 -268.589571 
L 624.091935 -254.70905 
L 661.928059 -266.761206 
L 699.764184 -264.227004 
L 737.600308 -261.067477 
L 775.436432 -271.733825 
L 813.272557 -259.030843 
L 813.272557 -300.139588 
L 813.272557 -300.139588 
L 775.436432 -298.041059 
L 737.600308 -290.926275 
L 699.764184 -299.055388 
L 661.928059 -300.315071 
L 624.091935 -302.29302 
L 586.25581 -297.250183 
L 548.419686 -296.353412 
L 510.583562 -300.666199 
L 472.747437 -283.941389 
L 434.911313 -300.752855 
L 397.075188 -294.827546 
L 359.239064 -300.047552 
L 321.40294 -301.479786 
L 283.566815 -297.986144 
L 245.730691 -292.964888 
L 207.894566 -293.962468 
L 170.058442 -293.24718 
L 132.222318 -290.782213 
L 94.386193 -276.530305 
z
" style="stroke: #2ca02c; stroke-opacity: 0.2"/>
    </defs>
    <g clip-path="url(#pd68d722f66)">
     <use xlink:href="#mcdda5aa20a" x="0" y="351.54968" style="fill: #2ca02c; fill-opacity: 0.2; stroke: #2ca02c; stroke-opacity: 0.2"/>
    </g>
   </g>
   <g id="patch_3">
    <path d="M 340.321002 293.308912 
L 378.157126 293.308912 
L 378.157126 37.635125 
L 340.321002 37.635125 
z
" clip-path="url(#pd68d722f66)" style="fill: #ffd700; opacity: 0.15; stroke: #ffd700; stroke-linejoin: miter"/>
   </g>
   <g id="matplotlib.axis_1">
    <g id="xtick_1">
     <g id="line2d_1">
      <path d="M 94.386193 293.308912 
L 94.386193 37.635125 
" clip-path="url(#pd68d722f66)" style="fill: none; stroke-dasharray: 2.96,1.28; stroke-dashoffset: 0; stroke: #b0b0b0; stroke-opacity: 0.3; stroke-width: 0.8"/>
     </g>
     <g id="line2d_2">
      <defs>
       <path id="meca032e96d" d="M 0 0 
L 0 3.5 
" style="stroke: #000000; stroke-width: 0.8"/>
      </defs>
      <g>
       <use xlink:href="#meca032e96d" x="94.386193" y="293.308912" style="stroke: #000000; stroke-width: 0.8"/>
      </g>
     </g>
     <g id="text_1">
      <!-- 1,000 -->
      <g transform="translate(74.843861 323.363355) rotate(-45) scale(0.09 -0.09)">
       <defs>
        <path id="DejaVuSans-31" d="M 794 531 
L 1825 531 
L 1825 4091 
L 703 3866 
L 703 4441 
L 1819 4666 
L 2450 4666 
L 2450 531 
L 3481 531 
L 3481 0 
L 794 0 
L 794 531 
z
" transform="scale(0.015625)"/>
        <path id="DejaVuSans-2c" d="M 750 794 
L 1409 794 
L 1409 256 
L 897 -744 
L 494 -744 
L 750 256 
L 750 794 
z
" transform="scale(0.015625)"/>
        <path id="DejaVuSans-30" d="M 2034 4250 
Q 1547 4250 1301 3770 
Q 1056 3291 1056 2328 
Q 1056 1369 1301 889 
Q 1547 409 2034 409 
Q 2525 409 2770 889 
Q 3016 1369 3016 2328 
Q 3016 3291 2770 3770 
Q 2525 4250 2034 4250 
z
M 2034 4750 
Q 2819 4750 3233 4129 
Q 3647 3509 3647 2328 
Q 3647 1150 3233 529 
Q 2819 -91 2034 -91 
Q 1250 -91 836 529 
Q 422 1150 422 2328 
Q 422 3509 836 4129 
Q 1250 4750 2034 4750 
z
" transform="scale(0.015625)"/>
       </defs>
       <use xlink:href="#DejaVuSans-31"/>
       <use xlink:href="#DejaVuSans-2c" transform="translate(63.623047 0)"/>
       <use xlink:href="#DejaVuSans-30" transform="translate(95.410156 0)"/>
       <use xlink:href="#DejaVuSans-30" transform="translate(159.033203 0)"/>
       <use xlink:href="#DejaVuSans-30" transform="translate(222.65625 0)"/>
      </g>
     </g>
    </g>
    <g id="xtick_2">
     <g id="line2d_3">
      <path d="M 132.222318 293.308912 
L 132.222318 37.635125 
" clip-path="url(#pd68d722f66)" style="fill: none; stroke-dasharray: 2.96,1.28; stroke-dashoffset: 0; stroke: #b0b0b0; stroke-opacity: 0.3; stroke-width: 0.8"/>
     </g>
     <g id="line2d_4">
      <g>
       <use xlink:href="#meca032e96d" x="132.222318" y="293.308912" style="stroke: #000000; stroke-width: 0.8"/>
      </g>
     </g>
     <g id="text_2">
      <!-- 2,000 -->
      <g transform="translate(112.679985 323.363355) rotate(-45) scale(0.09 -0.09)">
       <defs>
        <path id="DejaVuSans-32" d="M 1228 531 
L 3431 531 
L 3431 0 
L 469 0 
L 469 531 
Q 828 903 1448 1529 
Q 2069 2156 2228 2338 
Q 2531 2678 2651 2914 
Q 2772 3150 2772 3378 
Q 2772 3750 2511 3984 
Q 2250 4219 1831 4219 
Q 1534 4219 1204 4116 
Q 875 4013 500 3803 
L 500 4441 
Q 881 4594 1212 4672 
Q 1544 4750 1819 4750 
Q 2544 4750 2975 4387 
Q 3406 4025 3406 3419 
Q 3406 3131 3298 2873 
Q 3191 2616 2906 2266 
Q 2828 2175 2409 1742 
Q 1991 1309 1228 531 
z
" transform="scale(0.015625)"/>
       </defs>
       <use xlink:href="#DejaVuSans-32"/>
       <use xlink:href="#DejaVuSans-2c" transform="translate(63.623047 0)"/>
       <use xlink:href="#DejaVuSans-30" transform="translate(95.410156 0)"/>
       <use xlink:href="#DejaVuSans-30" transform="translate(159.033203 0)"/>
       <use xlink:href="#DejaVuSans-30" transform="translate(222.65625 0)"/>
      </g>
     </g>
    </g>
    <g id="xtick_3">
     <g id="line2d_5">
      <path d="M 170.058442 293.308912 
L 170.058442 37.635125 
" clip-path="url(#pd68d722f66)" style="fill: none; stroke-dasharray: 2.96,1.28; stroke-dashoffset: 0; stroke: #b0b0b0; stroke-opacity: 0.3; stroke-width: 0.8"/>
     </g>
     <g id="line2d_6">
      <g>
       <use xlink:href="#meca032e96d" x="170.058442" y="293.308912" style="stroke: #000000; stroke-width: 0.8"/>
      </g>
     </g>
     <g id="text_3">
      <!-- 3,000 -->
      <g transform="translate(150.51611 323.363355) rotate(-45) scale(0.09 -0.09)">
       <defs>
        <path id="DejaVuSans-33" d="M 2597 2516 
Q 3050 2419 3304 2112 
Q 3559 1806 3559 1356 
Q 3559 666 3084 287 
Q 2609 -91 1734 -91 
Q 1441 -91 1130 -33 
Q 819 25 488 141 
L 488 750 
Q 750 597 1062 519 
Q 1375 441 1716 441 
Q 2309 441 2620 675 
Q 2931 909 2931 1356 
Q 2931 1769 2642 2001 
Q 2353 2234 1838 2234 
L 1294 2234 
L 1294 2753 
L 1863 2753 
Q 2328 2753 2575 2939 
Q 2822 3125 2822 3475 
Q 2822 3834 2567 4026 
Q 2313 4219 1838 4219 
Q 1578 4219 1281 4162 
Q 984 4106 628 3988 
L 628 4550 
Q 988 4650 1302 4700 
Q 1616 4750 1894 4750 
Q 2613 4750 3031 4423 
Q 3450 4097 3450 3541 
Q 3450 3153 3228 2886 
Q 3006 2619 2597 2516 
z
" transform="scale(0.015625)"/>
       </defs>
       <use xlink:href="#DejaVuSans-33"/>
       <use xlink:href="#DejaVuSans-2c" transform="translate(63.623047 0)"/>
       <use xlink:href="#DejaVuSans-30" transform="translate(95.410156 0)"/>
       <use xlink:href="#DejaVuSans-30" transform="translate(159.033203 0)"/>
       <use xlink:href="#DejaVuSans-30" transform="translate(222.65625 0)"/>
      </g>
     </g>
    </g>
    <g id="xtick_4">
     <g id="line2d_7">
      <path d="M 207.894566 293.308912 
L 207.894566 37.635125 
" clip-path="url(#pd68d722f66)" style="fill: none; stroke-dasharray: 2.96,1.28; stroke-dashoffset: 0; stroke: #b0b0b0; stroke-opacity: 0.3; stroke-width: 0.8"/>
     </g>
     <g id="line2d_8">
      <g>
       <use xlink:href="#meca032e96d" x="207.894566" y="293.308912" style="stroke: #000000; stroke-width: 0.8"/>
      </g>
     </g>
     <g id="text_4">
      <!-- 4,000 -->
      <g transform="translate(188.352234 323.363355) rotate(-45) scale(0.09 -0.09)">
       <defs>
        <path id="DejaVuSans-34" d="M 2419 4116 
L 825 1625 
L 2419 1625 
L 2419 4116 
z
M 2253 4666 
L 3047 4666 
L 3047 1625 
L 3713 1625 
L 3713 1100 
L 3047 1100 
L 3047 0 
L 2419 0 
L 2419 1100 
L 313 1100 
L 313 1709 
L 2253 4666 
z
" transform="scale(0.015625)"/>
       </defs>
       <use xlink:href="#DejaVuSans-34"/>
       <use xlink:href="#DejaVuSans-2c" transform="translate(63.623047 0)"/>
       <use xlink:href="#DejaVuSans-30" transform="translate(95.410156 0)"/>
       <use xlink:href="#DejaVuSans-30" transform="translate(159.033203 0)"/>
       <use xlink:href="#DejaVuSans-30" transform="translate(222.65625 0)"/>
      </g>
     </g>
    </g>
    <g id="xtick_5">
     <g id="line2d_9">
      <path d="M 245.730691 293.308912 
L 245.730691 37.635125 
" clip-path="url(#pd68d722f66)" style="fill: none; stroke-dasharray: 2.96,1.28; stroke-dashoffset: 0; stroke: #b0b0b0; stroke-opacity: 0.3; stroke-width: 0.8"/>
     </g>
     <g id="line2d_10">
      <g>
       <use xlink:href="#meca032e96d" x="245.730691" y="293.308912" style="stroke: #000000; stroke-width: 0.8"/>
      </g>
     </g>
     <g id="text_5">
      <!-- 5,000 -->
      <g transform="translate(226.188359 323.363355) rotate(-45) scale(0.09 -0.09)">
       <defs>
        <path id="DejaVuSans-35" d="M 691 4666 
L 3169 4666 
L 3169 4134 
L 1269 4134 
L 1269 2991 
Q 1406 3038 1543 3061 
Q 1681 3084 1819 3084 
Q 2600 3084 3056 2656 
Q 3513 2228 3513 1497 
Q 3513 744 3044 326 
Q 2575 -91 1722 -91 
Q 1428 -91 1123 -41 
Q 819 9 494 109 
L 494 744 
Q 775 591 1075 516 
Q 1375 441 1709 441 
Q 2250 441 2565 725 
Q 2881 1009 2881 1497 
Q 2881 1984 2565 2268 
Q 2250 2553 1709 2553 
Q 1456 2553 1204 2497 
Q 953 2441 691 2322 
L 691 4666 
z
" transform="scale(0.015625)"/>
       </defs>
       <use xlink:href="#DejaVuSans-35"/>
       <use xlink:href="#DejaVuSans-2c" transform="translate(63.623047 0)"/>
       <use xlink:href="#DejaVuSans-30" transform="translate(95.410156 0)"/>
       <use xlink:href="#DejaVuSans-30" transform="translate(159.033203 0)"/>
       <use xlink:href="#DejaVuSans-30" transform="translate(222.65625 0)"/>
      </g>
     </g>
    </g>
    <g id="xtick_6">
     <g id="line2d_11">
      <path d="M 283.566815 293.308912 
L 283.566815 37.635125 
" clip-path="url(#pd68d722f66)" style="fill: none; stroke-dasharray: 2.96,1.28; stroke-dashoffset: 0; stroke: #b0b0b0; stroke-opacity: 0.3; stroke-width: 0.8"/>
     </g>
     <g id="line2d_12">
      <g>
       <use xlink:href="#meca032e96d" x="283.566815" y="293.308912" style="stroke: #000000; stroke-width: 0.8"/>
      </g>
     </g>
     <g id="text_6">
      <!-- 6,000 -->
      <g transform="translate(264.024483 323.363355) rotate(-45) scale(0.09 -0.09)">
       <defs>
        <path id="DejaVuSans-36" d="M 2113 2584 
Q 1688 2584 1439 2293 
Q 1191 2003 1191 1497 
Q 1191 994 1439 701 
Q 1688 409 2113 409 
Q 2538 409 2786 701 
Q 3034 994 3034 1497 
Q 3034 2003 2786 2293 
Q 2538 2584 2113 2584 
z
M 3366 4563 
L 3366 3988 
Q 3128 4100 2886 4159 
Q 2644 4219 2406 4219 
Q 1781 4219 1451 3797 
Q 1122 3375 1075 2522 
Q 1259 2794 1537 2939 
Q 1816 3084 2150 3084 
Q 2853 3084 3261 2657 
Q 3669 2231 3669 1497 
Q 3669 778 3244 343 
Q 2819 -91 2113 -91 
Q 1303 -91 875 529 
Q 447 1150 447 2328 
Q 447 3434 972 4092 
Q 1497 4750 2381 4750 
Q 2619 4750 2861 4703 
Q 3103 4656 3366 4563 
z
" transform="scale(0.015625)"/>
       </defs>
       <use xlink:href="#DejaVuSans-36"/>
       <use xlink:href="#DejaVuSans-2c" transform="translate(63.623047 0)"/>
       <use xlink:href="#DejaVuSans-30" transform="translate(95.410156 0)"/>
       <use xlink:href="#DejaVuSans-30" transform="translate(159.033203 0)"/>
       <use xlink:href="#DejaVuSans-30" transform="translate(222.65625 0)"/>
      </g>
     </g>
    </g>
    <g id="xtick_7">
     <g id="line2d_13">
      <path d="M 321.40294 293.308912 
L 321.40294 37.635125 
" clip-path="url(#pd68d722f66)" style="fill: none; stroke-dasharray: 2.96,1.28; stroke-dashoffset: 0; stroke: #b0b0b0; stroke-opacity: 0.3; stroke-width: 0.8"/>
     </g>
     <g id="line2d_14">
      <g>
       <use xlink:href="#meca032e96d" x="321.40294" y="293.308912" style="stroke: #000000; stroke-width: 0.8"/>
      </g>
     </g>
     <g id="text_7">
      <!-- 7,000 -->
      <g transform="translate(301.860607 323.363355) rotate(-45) scale(0.09 -0.09)">
       <defs>
        <path id="DejaVuSans-37" d="M 525 4666 
L 3525 4666 
L 3525 4397 
L 1831 0 
L 1172 0 
L 2766 4134 
L 525 4134 
L 525 4666 
z
" transform="scale(0.015625)"/>
       </defs>
       <use xlink:href="#DejaVuSans-37"/>
       <use xlink:href="#DejaVuSans-2c" transform="translate(63.623047 0)"/>
       <use xlink:href="#DejaVuSans-30" transform="translate(95.410156 0)"/>
       <use xlink:href="#DejaVuSans-30" transform="translate(159.033203 0)"/>
       <use xlink:href="#DejaVuSans-30" transform="translate(222.65625 0)"/>
      </g>
     </g>
    </g>
    <g id="xtick_8">
     <g id="line2d_15">
      <path d="M 359.239064 293.308912 
L 359.239064 37.635125 
" clip-path="url(#pd68d722f66)" style="fill: none; stroke-dasharray: 2.96,1.28; stroke-dashoffset: 0; stroke: #b0b0b0; stroke-opacity: 0.3; stroke-width: 0.8"/>
     </g>
     <g id="line2d_16">
      <g>
       <use xlink:href="#meca032e96d" x="359.239064" y="293.308912" style="stroke: #000000; stroke-width: 0.8"/>
      </g>
     </g>
     <g id="text_8">
      <!-- 8,000 -->
      <g transform="translate(339.696732 323.363355) rotate(-45) scale(0.09 -0.09)">
       <defs>
        <path id="DejaVuSans-38" d="M 2034 2216 
Q 1584 2216 1326 1975 
Q 1069 1734 1069 1313 
Q 1069 891 1326 650 
Q 1584 409 2034 409 
Q 2484 409 2743 651 
Q 3003 894 3003 1313 
Q 3003 1734 2745 1975 
Q 2488 2216 2034 2216 
z
M 1403 2484 
Q 997 2584 770 2862 
Q 544 3141 544 3541 
Q 544 4100 942 4425 
Q 1341 4750 2034 4750 
Q 2731 4750 3128 4425 
Q 3525 4100 3525 3541 
Q 3525 3141 3298 2862 
Q 3072 2584 2669 2484 
Q 3125 2378 3379 2068 
Q 3634 1759 3634 1313 
Q 3634 634 3220 271 
Q 2806 -91 2034 -91 
Q 1263 -91 848 271 
Q 434 634 434 1313 
Q 434 1759 690 2068 
Q 947 2378 1403 2484 
z
M 1172 3481 
Q 1172 3119 1398 2916 
Q 1625 2713 2034 2713 
Q 2441 2713 2670 2916 
Q 2900 3119 2900 3481 
Q 2900 3844 2670 4047 
Q 2441 4250 2034 4250 
Q 1625 4250 1398 4047 
Q 1172 3844 1172 3481 
z
" transform="scale(0.015625)"/>
       </defs>
       <use xlink:href="#DejaVuSans-38"/>
       <use xlink:href="#DejaVuSans-2c" transform="translate(63.623047 0)"/>
       <use xlink:href="#DejaVuSans-30" transform="translate(95.410156 0)"/>
       <use xlink:href="#DejaVuSans-30" transform="translate(159.033203 0)"/>
       <use xlink:href="#DejaVuSans-30" transform="translate(222.65625 0)"/>
      </g>
     </g>
    </g>
    <g id="xtick_9">
     <g id="line2d_17">
      <path d="M 397.075188 293.308912 
L 397.075188 37.635125 
" clip-path="url(#pd68d722f66)" style="fill: none; stroke-dasharray: 2.96,1.28; stroke-dashoffset: 0; stroke: #b0b0b0; stroke-opacity: 0.3; stroke-width: 0.8"/>
     </g>
     <g id="line2d_18">
      <g>
       <use xlink:href="#meca032e96d" x="397.075188" y="293.308912" style="stroke: #000000; stroke-width: 0.8"/>
      </g>
     </g>
     <g id="text_9">
      <!-- 9,000 -->
      <g transform="translate(377.532856 323.363355) rotate(-45) scale(0.09 -0.09)">
       <defs>
        <path id="DejaVuSans-39" d="M 703 97 
L 703 672 
Q 941 559 1184 500 
Q 1428 441 1663 441 
Q 2288 441 2617 861 
Q 2947 1281 2994 2138 
Q 2813 1869 2534 1725 
Q 2256 1581 1919 1581 
Q 1219 1581 811 2004 
Q 403 2428 403 3163 
Q 403 3881 828 4315 
Q 1253 4750 1959 4750 
Q 2769 4750 3195 4129 
Q 3622 3509 3622 2328 
Q 3622 1225 3098 567 
Q 2575 -91 1691 -91 
Q 1453 -91 1209 -44 
Q 966 3 703 97 
z
M 1959 2075 
Q 2384 2075 2632 2365 
Q 2881 2656 2881 3163 
Q 2881 3666 2632 3958 
Q 2384 4250 1959 4250 
Q 1534 4250 1286 3958 
Q 1038 3666 1038 3163 
Q 1038 2656 1286 2365 
Q 1534 2075 1959 2075 
z
" transform="scale(0.015625)"/>
       </defs>
       <use xlink:href="#DejaVuSans-39"/>
       <use xlink:href="#DejaVuSans-2c" transform="translate(63.623047 0)"/>
       <use xlink:href="#DejaVuSans-30" transform="translate(95.410156 0)"/>
       <use xlink:href="#DejaVuSans-30" transform="translate(159.033203 0)"/>
       <use xlink:href="#DejaVuSans-30" transform="translate(222.65625 0)"/>
      </g>
     </g>
    </g>
    <g id="xtick_10">
     <g id="line2d_19">
      <path d="M 434.911313 293.308912 
L 434.911313 37.635125 
" clip-path="url(#pd68d722f66)" style="fill: none; stroke-dasharray: 2.96,1.28; stroke-dashoffset: 0; stroke: #b0b0b0; stroke-opacity: 0.3; stroke-width: 0.8"/>
     </g>
     <g id="line2d_20">
      <g>
       <use xlink:href="#meca032e96d" x="434.911313" y="293.308912" style="stroke: #000000; stroke-width: 0.8"/>
      </g>
     </g>
     <g id="text_10">
      <!-- 10,000 -->
      <g transform="translate(411.31991 327.412425) rotate(-45) scale(0.09 -0.09)">
       <use xlink:href="#DejaVuSans-31"/>
       <use xlink:href="#DejaVuSans-30" transform="translate(63.623047 0)"/>
       <use xlink:href="#DejaVuSans-2c" transform="translate(127.246094 0)"/>
       <use xlink:href="#DejaVuSans-30" transform="translate(159.033203 0)"/>
       <use xlink:href="#DejaVuSans-30" transform="translate(222.65625 0)"/>
       <use xlink:href="#DejaVuSans-30" transform="translate(286.279297 0)"/>
      </g>
     </g>
    </g>
    <g id="xtick_11">
     <g id="line2d_21">
      <path d="M 472.747437 293.308912 
L 472.747437 37.635125 
" clip-path="url(#pd68d722f66)" style="fill: none; stroke-dasharray: 2.96,1.28; stroke-dashoffset: 0; stroke: #b0b0b0; stroke-opacity: 0.3; stroke-width: 0.8"/>
     </g>
     <g id="line2d_22">
      <g>
       <use xlink:href="#meca032e96d" x="472.747437" y="293.308912" style="stroke: #000000; stroke-width: 0.8"/>
      </g>
     </g>
     <g id="text_11">
      <!-- 11,000 -->
      <g transform="translate(449.156035 327.412425) rotate(-45) scale(0.09 -0.09)">
       <use xlink:href="#DejaVuSans-31"/>
       <use xlink:href="#DejaVuSans-31" transform="translate(63.623047 0)"/>
       <use xlink:href="#DejaVuSans-2c" transform="translate(127.246094 0)"/>
       <use xlink:href="#DejaVuSans-30" transform="translate(159.033203 0)"/>
       <use xlink:href="#DejaVuSans-30" transform="translate(222.65625 0)"/>
       <use xlink:href="#DejaVuSans-30" transform="translate(286.279297 0)"/>
      </g>
     </g>
    </g>
    <g id="xtick_12">
     <g id="line2d_23">
      <path d="M 510.583562 293.308912 
L 510.583562 37.635125 
" clip-path="url(#pd68d722f66)" style="fill: none; stroke-dasharray: 2.96,1.28; stroke-dashoffset: 0; stroke: #b0b0b0; stroke-opacity: 0.3; stroke-width: 0.8"/>
     </g>
     <g id="line2d_24">
      <g>
       <use xlink:href="#meca032e96d" x="510.583562" y="293.308912" style="stroke: #000000; stroke-width: 0.8"/>
      </g>
     </g>
     <g id="text_12">
      <!-- 12,000 -->
      <g transform="translate(486.992159 327.412425) rotate(-45) scale(0.09 -0.09)">
       <use xlink:href="#DejaVuSans-31"/>
       <use xlink:href="#DejaVuSans-32" transform="translate(63.623047 0)"/>
       <use xlink:href="#DejaVuSans-2c" transform="translate(127.246094 0)"/>
       <use xlink:href="#DejaVuSans-30" transform="translate(159.033203 0)"/>
       <use xlink:href="#DejaVuSans-30" transform="translate(222.65625 0)"/>
       <use xlink:href="#DejaVuSans-30" transform="translate(286.279297 0)"/>
      </g>
     </g>
    </g>
    <g id="xtick_13">
     <g id="line2d_25">
      <path d="M 548.419686 293.308912 
L 548.419686 37.635125 
" clip-path="url(#pd68d722f66)" style="fill: none; stroke-dasharray: 2.96,1.28; stroke-dashoffset: 0; stroke: #b0b0b0; stroke-opacity: 0.3; stroke-width: 0.8"/>
     </g>
     <g id="line2d_26">
      <g>
       <use xlink:href="#meca032e96d" x="548.419686" y="293.308912" style="stroke: #000000; stroke-width: 0.8"/>
      </g>
     </g>
     <g id="text_13">
      <!-- 13,000 -->
      <g transform="translate(524.828284 327.412425) rotate(-45) scale(0.09 -0.09)">
       <use xlink:href="#DejaVuSans-31"/>
       <use xlink:href="#DejaVuSans-33" transform="translate(63.623047 0)"/>
       <use xlink:href="#DejaVuSans-2c" transform="translate(127.246094 0)"/>
       <use xlink:href="#DejaVuSans-30" transform="translate(159.033203 0)"/>
       <use xlink:href="#DejaVuSans-30" transform="translate(222.65625 0)"/>
       <use xlink:href="#DejaVuSans-30" transform="translate(286.279297 0)"/>
      </g>
     </g>
    </g>
    <g id="xtick_14">
     <g id="line2d_27">
      <path d="M 586.25581 293.308912 
L 586.25581 37.635125 
" clip-path="url(#pd68d722f66)" style="fill: none; stroke-dasharray: 2.96,1.28; stroke-dashoffset: 0; stroke: #b0b0b0; stroke-opacity: 0.3; stroke-width: 0.8"/>
     </g>
     <g id="line2d_28">
      <g>
       <use xlink:href="#meca032e96d" x="586.25581" y="293.308912" style="stroke: #000000; stroke-width: 0.8"/>
      </g>
     </g>
     <g id="text_14">
      <!-- 14,000 -->
      <g transform="translate(562.664408 327.412425) rotate(-45) scale(0.09 -0.09)">
       <use xlink:href="#DejaVuSans-31"/>
       <use xlink:href="#DejaVuSans-34" transform="translate(63.623047 0)"/>
       <use xlink:href="#DejaVuSans-2c" transform="translate(127.246094 0)"/>
       <use xlink:href="#DejaVuSans-30" transform="translate(159.033203 0)"/>
       <use xlink:href="#DejaVuSans-30" transform="translate(222.65625 0)"/>
       <use xlink:href="#DejaVuSans-30" transform="translate(286.279297 0)"/>
      </g>
     </g>
    </g>
    <g id="xtick_15">
     <g id="line2d_29">
      <path d="M 624.091935 293.308912 
L 624.091935 37.635125 
" clip-path="url(#pd68d722f66)" style="fill: none; stroke-dasharray: 2.96,1.28; stroke-dashoffset: 0; stroke: #b0b0b0; stroke-opacity: 0.3; stroke-width: 0.8"/>
     </g>
     <g id="line2d_30">
      <g>
       <use xlink:href="#meca032e96d" x="624.091935" y="293.308912" style="stroke: #000000; stroke-width: 0.8"/>
      </g>
     </g>
     <g id="text_15">
      <!-- 15,000 -->
      <g transform="translate(600.500532 327.412425) rotate(-45) scale(0.09 -0.09)">
       <use xlink:href="#DejaVuSans-31"/>
       <use xlink:href="#DejaVuSans-35" transform="translate(63.623047 0)"/>
       <use xlink:href="#DejaVuSans-2c" transform="translate(127.246094 0)"/>
       <use xlink:href="#DejaVuSans-30" transform="translate(159.033203 0)"/>
       <use xlink:href="#DejaVuSans-30" transform="translate(222.65625 0)"/>
       <use xlink:href="#DejaVuSans-30" transform="translate(286.279297 0)"/>
      </g>
     </g>
    </g>
    <g id="xtick_16">
     <g id="line2d_31">
      <path d="M 661.928059 293.308912 
L 661.928059 37.635125 
" clip-path="url(#pd68d722f66)" style="fill: none; stroke-dasharray: 2.96,1.28; stroke-dashoffset: 0; stroke: #b0b0b0; stroke-opacity: 0.3; stroke-width: 0.8"/>
     </g>
     <g id="line2d_32">
      <g>
       <use xlink:href="#meca032e96d" x="661.928059" y="293.308912" style="stroke: #000000; stroke-width: 0.8"/>
      </g>
     </g>
     <g id="text_16">
      <!-- 16,000 -->
      <g transform="translate(638.336657 327.412425) rotate(-45) scale(0.09 -0.09)">
       <use xlink:href="#DejaVuSans-31"/>
       <use xlink:href="#DejaVuSans-36" transform="translate(63.623047 0)"/>
       <use xlink:href="#DejaVuSans-2c" transform="translate(127.246094 0)"/>
       <use xlink:href="#DejaVuSans-30" transform="translate(159.033203 0)"/>
       <use xlink:href="#DejaVuSans-30" transform="translate(222.65625 0)"/>
       <use xlink:href="#DejaVuSans-30" transform="translate(286.279297 0)"/>
      </g>
     </g>
    </g>
    <g id="xtick_17">
     <g id="line2d_33">
      <path d="M 699.764184 293.308912 
L 699.764184 37.635125 
" clip-path="url(#pd68d722f66)" style="fill: none; stroke-dasharray: 2.96,1.28; stroke-dashoffset: 0; stroke: #b0b0b0; stroke-opacity: 0.3; stroke-width: 0.8"/>
     </g>
     <g id="line2d_34">
      <g>
       <use xlink:href="#meca032e96d" x="699.764184" y="293.308912" style="stroke: #000000; stroke-width: 0.8"/>
      </g>
     </g>
     <g id="text_17">
      <!-- 17,000 -->
      <g transform="translate(676.172781 327.412425) rotate(-45) scale(0.09 -0.09)">
       <use xlink:href="#DejaVuSans-31"/>
       <use xlink:href="#DejaVuSans-37" transform="translate(63.623047 0)"/>
       <use xlink:href="#DejaVuSans-2c" transform="translate(127.246094 0)"/>
       <use xlink:href="#DejaVuSans-30" transform="translate(159.033203 0)"/>
       <use xlink:href="#DejaVuSans-30" transform="translate(222.65625 0)"/>
       <use xlink:href="#DejaVuSans-30" transform="translate(286.279297 0)"/>
      </g>
     </g>
    </g>
    <g id="xtick_18">
     <g id="line2d_35">
      <path d="M 737.600308 293.308912 
L 737.600308 37.635125 
" clip-path="url(#pd68d722f66)" style="fill: none; stroke-dasharray: 2.96,1.28; stroke-dashoffset: 0; stroke: #b0b0b0; stroke-opacity: 0.3; stroke-width: 0.8"/>
     </g>
     <g id="line2d_36">
      <g>
       <use xlink:href="#meca032e96d" x="737.600308" y="293.308912" style="stroke: #000000; stroke-width: 0.8"/>
      </g>
     </g>
     <g id="text_18">
      <!-- 18,000 -->
      <g transform="translate(714.008906 327.412425) rotate(-45) scale(0.09 -0.09)">
       <use xlink:href="#DejaVuSans-31"/>
       <use xlink:href="#DejaVuSans-38" transform="translate(63.623047 0)"/>
       <use xlink:href="#DejaVuSans-2c" transform="translate(127.246094 0)"/>
       <use xlink:href="#DejaVuSans-30" transform="translate(159.033203 0)"/>
       <use xlink:href="#DejaVuSans-30" transform="translate(222.65625 0)"/>
       <use xlink:href="#DejaVuSans-30" transform="translate(286.279297 0)"/>
      </g>
     </g>
    </g>
    <g id="xtick_19">
     <g id="line2d_37">
      <path d="M 775.436432 293.308912 
L 775.436432 37.635125 
" clip-path="url(#pd68d722f66)" style="fill: none; stroke-dasharray: 2.96,1.28; stroke-dashoffset: 0; stroke: #b0b0b0; stroke-opacity: 0.3; stroke-width: 0.8"/>
     </g>
     <g id="line2d_38">
      <g>
       <use xlink:href="#meca032e96d" x="775.436432" y="293.308912" style="stroke: #000000; stroke-width: 0.8"/>
      </g>
     </g>
     <g id="text_19">
      <!-- 19,000 -->
      <g transform="translate(751.84503 327.412425) rotate(-45) scale(0.09 -0.09)">
       <use xlink:href="#DejaVuSans-31"/>
       <use xlink:href="#DejaVuSans-39" transform="translate(63.623047 0)"/>
       <use xlink:href="#DejaVuSans-2c" transform="translate(127.246094 0)"/>
       <use xlink:href="#DejaVuSans-30" transform="translate(159.033203 0)"/>
       <use xlink:href="#DejaVuSans-30" transform="translate(222.65625 0)"/>
       <use xlink:href="#DejaVuSans-30" transform="translate(286.279297 0)"/>
      </g>
     </g>
    </g>
    <g id="xtick_20">
     <g id="line2d_39">
      <path d="M 813.272557 293.308912 
L 813.272557 37.635125 
" clip-path="url(#pd68d722f66)" style="fill: none; stroke-dasharray: 2.96,1.28; stroke-dashoffset: 0; stroke: #b0b0b0; stroke-opacity: 0.3; stroke-width: 0.8"/>
     </g>
     <g id="line2d_40">
      <g>
       <use xlink:href="#meca032e96d" x="813.272557" y="293.308912" style="stroke: #000000; stroke-width: 0.8"/>
      </g>
     </g>
     <g id="text_20">
      <!-- 20,000 -->
      <g transform="translate(789.681154 327.412425) rotate(-45) scale(0.09 -0.09)">
       <use xlink:href="#DejaVuSans-32"/>
       <use xlink:href="#DejaVuSans-30" transform="translate(63.623047 0)"/>
       <use xlink:href="#DejaVuSans-2c" transform="translate(127.246094 0)"/>
       <use xlink:href="#DejaVuSans-30" transform="translate(159.033203 0)"/>
       <use xlink:href="#DejaVuSans-30" transform="translate(222.65625 0)"/>
       <use xlink:href="#DejaVuSans-30" transform="translate(286.279297 0)"/>
      </g>
     </g>
    </g>
    <g id="text_21">
     <!-- Number of Selected Features (N) -->
     <g transform="translate(355.339375 341.854055) scale(0.12 -0.12)">
      <defs>
       <path id="DejaVuSans-4e" d="M 628 4666 
L 1478 4666 
L 3547 763 
L 3547 4666 
L 4159 4666 
L 4159 0 
L 3309 0 
L 1241 3903 
L 1241 0 
L 628 0 
L 628 4666 
z
" transform="scale(0.015625)"/>
       <path id="DejaVuSans-75" d="M 544 1381 
L 544 3500 
L 1119 3500 
L 1119 1403 
Q 1119 906 1312 657 
Q 1506 409 1894 409 
Q 2359 409 2629 706 
Q 2900 1003 2900 1516 
L 2900 3500 
L 3475 3500 
L 3475 0 
L 2900 0 
L 2900 538 
Q 2691 219 2414 64 
Q 2138 -91 1772 -91 
Q 1169 -91 856 284 
Q 544 659 544 1381 
z
M 1991 3584 
L 1991 3584 
z
" transform="scale(0.015625)"/>
       <path id="DejaVuSans-6d" d="M 3328 2828 
Q 3544 3216 3844 3400 
Q 4144 3584 4550 3584 
Q 5097 3584 5394 3201 
Q 5691 2819 5691 2113 
L 5691 0 
L 5113 0 
L 5113 2094 
Q 5113 2597 4934 2840 
Q 4756 3084 4391 3084 
Q 3944 3084 3684 2787 
Q 3425 2491 3425 1978 
L 3425 0 
L 2847 0 
L 2847 2094 
Q 2847 2600 2669 2842 
Q 2491 3084 2119 3084 
Q 1678 3084 1418 2786 
Q 1159 2488 1159 1978 
L 1159 0 
L 581 0 
L 581 3500 
L 1159 3500 
L 1159 2956 
Q 1356 3278 1631 3431 
Q 1906 3584 2284 3584 
Q 2666 3584 2933 3390 
Q 3200 3197 3328 2828 
z
" transform="scale(0.015625)"/>
       <path id="DejaVuSans-62" d="M 3116 1747 
Q 3116 2381 2855 2742 
Q 2594 3103 2138 3103 
Q 1681 3103 1420 2742 
Q 1159 2381 1159 1747 
Q 1159 1113 1420 752 
Q 1681 391 2138 391 
Q 2594 391 2855 752 
Q 3116 1113 3116 1747 
z
M 1159 2969 
Q 1341 3281 1617 3432 
Q 1894 3584 2278 3584 
Q 2916 3584 3314 3078 
Q 3713 2572 3713 1747 
Q 3713 922 3314 415 
Q 2916 -91 2278 -91 
Q 1894 -91 1617 61 
Q 1341 213 1159 525 
L 1159 0 
L 581 0 
L 581 4863 
L 1159 4863 
L 1159 2969 
z
" transform="scale(0.015625)"/>
       <path id="DejaVuSans-65" d="M 3597 1894 
L 3597 1613 
L 953 1613 
Q 991 1019 1311 708 
Q 1631 397 2203 397 
Q 2534 397 2845 478 
Q 3156 559 3463 722 
L 3463 178 
Q 3153 47 2828 -22 
Q 2503 -91 2169 -91 
Q 1331 -91 842 396 
Q 353 884 353 1716 
Q 353 2575 817 3079 
Q 1281 3584 2069 3584 
Q 2775 3584 3186 3129 
Q 3597 2675 3597 1894 
z
M 3022 2063 
Q 3016 2534 2758 2815 
Q 2500 3097 2075 3097 
Q 1594 3097 1305 2825 
Q 1016 2553 972 2059 
L 3022 2063 
z
" transform="scale(0.015625)"/>
       <path id="DejaVuSans-72" d="M 2631 2963 
Q 2534 3019 2420 3045 
Q 2306 3072 2169 3072 
Q 1681 3072 1420 2755 
Q 1159 2438 1159 1844 
L 1159 0 
L 581 0 
L 581 3500 
L 1159 3500 
L 1159 2956 
Q 1341 3275 1631 3429 
Q 1922 3584 2338 3584 
Q 2397 3584 2469 3576 
Q 2541 3569 2628 3553 
L 2631 2963 
z
" transform="scale(0.015625)"/>
       <path id="DejaVuSans-20" transform="scale(0.015625)"/>
       <path id="DejaVuSans-6f" d="M 1959 3097 
Q 1497 3097 1228 2736 
Q 959 2375 959 1747 
Q 959 1119 1226 758 
Q 1494 397 1959 397 
Q 2419 397 2687 759 
Q 2956 1122 2956 1747 
Q 2956 2369 2687 2733 
Q 2419 3097 1959 3097 
z
M 1959 3584 
Q 2709 3584 3137 3096 
Q 3566 2609 3566 1747 
Q 3566 888 3137 398 
Q 2709 -91 1959 -91 
Q 1206 -91 779 398 
Q 353 888 353 1747 
Q 353 2609 779 3096 
Q 1206 3584 1959 3584 
z
" transform="scale(0.015625)"/>
       <path id="DejaVuSans-66" d="M 2375 4863 
L 2375 4384 
L 1825 4384 
Q 1516 4384 1395 4259 
Q 1275 4134 1275 3809 
L 1275 3500 
L 2222 3500 
L 2222 3053 
L 1275 3053 
L 1275 0 
L 697 0 
L 697 3053 
L 147 3053 
L 147 3500 
L 697 3500 
L 697 3744 
Q 697 4328 969 4595 
Q 1241 4863 1831 4863 
L 2375 4863 
z
" transform="scale(0.015625)"/>
       <path id="DejaVuSans-53" d="M 3425 4513 
L 3425 3897 
Q 3066 4069 2747 4153 
Q 2428 4238 2131 4238 
Q 1616 4238 1336 4038 
Q 1056 3838 1056 3469 
Q 1056 3159 1242 3001 
Q 1428 2844 1947 2747 
L 2328 2669 
Q 3034 2534 3370 2195 
Q 3706 1856 3706 1288 
Q 3706 609 3251 259 
Q 2797 -91 1919 -91 
Q 1588 -91 1214 -16 
Q 841 59 441 206 
L 441 856 
Q 825 641 1194 531 
Q 1563 422 1919 422 
Q 2459 422 2753 634 
Q 3047 847 3047 1241 
Q 3047 1584 2836 1778 
Q 2625 1972 2144 2069 
L 1759 2144 
Q 1053 2284 737 2584 
Q 422 2884 422 3419 
Q 422 4038 858 4394 
Q 1294 4750 2059 4750 
Q 2388 4750 2728 4690 
Q 3069 4631 3425 4513 
z
" transform="scale(0.015625)"/>
       <path id="DejaVuSans-6c" d="M 603 4863 
L 1178 4863 
L 1178 0 
L 603 0 
L 603 4863 
z
" transform="scale(0.015625)"/>
       <path id="DejaVuSans-63" d="M 3122 3366 
L 3122 2828 
Q 2878 2963 2633 3030 
Q 2388 3097 2138 3097 
Q 1578 3097 1268 2742 
Q 959 2388 959 1747 
Q 959 1106 1268 751 
Q 1578 397 2138 397 
Q 2388 397 2633 464 
Q 2878 531 3122 666 
L 3122 134 
Q 2881 22 2623 -34 
Q 2366 -91 2075 -91 
Q 1284 -91 818 406 
Q 353 903 353 1747 
Q 353 2603 823 3093 
Q 1294 3584 2113 3584 
Q 2378 3584 2631 3529 
Q 2884 3475 3122 3366 
z
" transform="scale(0.015625)"/>
       <path id="DejaVuSans-74" d="M 1172 4494 
L 1172 3500 
L 2356 3500 
L 2356 3053 
L 1172 3053 
L 1172 1153 
Q 1172 725 1289 603 
Q 1406 481 1766 481 
L 2356 481 
L 2356 0 
L 1766 0 
Q 1100 0 847 248 
Q 594 497 594 1153 
L 594 3053 
L 172 3053 
L 172 3500 
L 594 3500 
L 594 4494 
L 1172 4494 
z
" transform="scale(0.015625)"/>
       <path id="DejaVuSans-64" d="M 2906 2969 
L 2906 4863 
L 3481 4863 
L 3481 0 
L 2906 0 
L 2906 525 
Q 2725 213 2448 61 
Q 2172 -91 1784 -91 
Q 1150 -91 751 415 
Q 353 922 353 1747 
Q 353 2572 751 3078 
Q 1150 3584 1784 3584 
Q 2172 3584 2448 3432 
Q 2725 3281 2906 2969 
z
M 947 1747 
Q 947 1113 1208 752 
Q 1469 391 1925 391 
Q 2381 391 2643 752 
Q 2906 1113 2906 1747 
Q 2906 2381 2643 2742 
Q 2381 3103 1925 3103 
Q 1469 3103 1208 2742 
Q 947 2381 947 1747 
z
" transform="scale(0.015625)"/>
       <path id="DejaVuSans-46" d="M 628 4666 
L 3309 4666 
L 3309 4134 
L 1259 4134 
L 1259 2759 
L 3109 2759 
L 3109 2228 
L 1259 2228 
L 1259 0 
L 628 0 
L 628 4666 
z
" transform="scale(0.015625)"/>
       <path id="DejaVuSans-61" d="M 2194 1759 
Q 1497 1759 1228 1600 
Q 959 1441 959 1056 
Q 959 750 1161 570 
Q 1363 391 1709 391 
Q 2188 391 2477 730 
Q 2766 1069 2766 1631 
L 2766 1759 
L 2194 1759 
z
M 3341 1997 
L 3341 0 
L 2766 0 
L 2766 531 
Q 2569 213 2275 61 
Q 1981 -91 1556 -91 
Q 1019 -91 701 211 
Q 384 513 384 1019 
Q 384 1609 779 1909 
Q 1175 2209 1959 2209 
L 2766 2209 
L 2766 2266 
Q 2766 2663 2505 2880 
Q 2244 3097 1772 3097 
Q 1472 3097 1187 3025 
Q 903 2953 641 2809 
L 641 3341 
Q 956 3463 1253 3523 
Q 1550 3584 1831 3584 
Q 2591 3584 2966 3190 
Q 3341 2797 3341 1997 
z
" transform="scale(0.015625)"/>
       <path id="DejaVuSans-73" d="M 2834 3397 
L 2834 2853 
Q 2591 2978 2328 3040 
Q 2066 3103 1784 3103 
Q 1356 3103 1142 2972 
Q 928 2841 928 2578 
Q 928 2378 1081 2264 
Q 1234 2150 1697 2047 
L 1894 2003 
Q 2506 1872 2764 1633 
Q 3022 1394 3022 966 
Q 3022 478 2636 193 
Q 2250 -91 1575 -91 
Q 1294 -91 989 -36 
Q 684 19 347 128 
L 347 722 
Q 666 556 975 473 
Q 1284 391 1588 391 
Q 1994 391 2212 530 
Q 2431 669 2431 922 
Q 2431 1156 2273 1281 
Q 2116 1406 1581 1522 
L 1381 1569 
Q 847 1681 609 1914 
Q 372 2147 372 2553 
Q 372 3047 722 3315 
Q 1072 3584 1716 3584 
Q 2034 3584 2315 3537 
Q 2597 3491 2834 3397 
z
" transform="scale(0.015625)"/>
       <path id="DejaVuSans-28" d="M 1984 4856 
Q 1566 4138 1362 3434 
Q 1159 2731 1159 2009 
Q 1159 1288 1364 580 
Q 1569 -128 1984 -844 
L 1484 -844 
Q 1016 -109 783 600 
Q 550 1309 550 2009 
Q 550 2706 781 3412 
Q 1013 4119 1484 4856 
L 1984 4856 
z
" transform="scale(0.015625)"/>
       <path id="DejaVuSans-29" d="M 513 4856 
L 1013 4856 
Q 1481 4119 1714 3412 
Q 1947 2706 1947 2009 
Q 1947 1309 1714 600 
Q 1481 -109 1013 -844 
L 513 -844 
Q 928 -128 1133 580 
Q 1338 1288 1338 2009 
Q 1338 2731 1133 3434 
Q 928 4138 513 4856 
z
" transform="scale(0.015625)"/>
      </defs>
      <use xlink:href="#DejaVuSans-4e"/>
      <use xlink:href="#DejaVuSans-75" transform="translate(74.804688 0)"/>
      <use xlink:href="#DejaVuSans-6d" transform="translate(138.183594 0)"/>
      <use xlink:href="#DejaVuSans-62" transform="translate(235.595703 0)"/>
      <use xlink:href="#DejaVuSans-65" transform="translate(299.072266 0)"/>
      <use xlink:href="#DejaVuSans-72" transform="translate(360.595703 0)"/>
      <use xlink:href="#DejaVuSans-20" transform="translate(401.708984 0)"/>
      <use xlink:href="#DejaVuSans-6f" transform="translate(433.496094 0)"/>
      <use xlink:href="#DejaVuSans-66" transform="translate(494.677734 0)"/>
      <use xlink:href="#DejaVuSans-20" transform="translate(529.882812 0)"/>
      <use xlink:href="#DejaVuSans-53" transform="translate(561.669922 0)"/>
      <use xlink:href="#DejaVuSans-65" transform="translate(625.146484 0)"/>
      <use xlink:href="#DejaVuSans-6c" transform="translate(686.669922 0)"/>
      <use xlink:href="#DejaVuSans-65" transform="translate(714.453125 0)"/>
      <use xlink:href="#DejaVuSans-63" transform="translate(775.976562 0)"/>
      <use xlink:href="#DejaVuSans-74" transform="translate(830.957031 0)"/>
      <use xlink:href="#DejaVuSans-65" transform="translate(870.166016 0)"/>
      <use xlink:href="#DejaVuSans-64" transform="translate(931.689453 0)"/>
      <use xlink:href="#DejaVuSans-20" transform="translate(995.166016 0)"/>
      <use xlink:href="#DejaVuSans-46" transform="translate(1026.953125 0)"/>
      <use xlink:href="#DejaVuSans-65" transform="translate(1078.972656 0)"/>
      <use xlink:href="#DejaVuSans-61" transform="translate(1140.496094 0)"/>
      <use xlink:href="#DejaVuSans-74" transform="translate(1201.775391 0)"/>
      <use xlink:href="#DejaVuSans-75" transform="translate(1240.984375 0)"/>
      <use xlink:href="#DejaVuSans-72" transform="translate(1304.363281 0)"/>
      <use xlink:href="#DejaVuSans-65" transform="translate(1343.226562 0)"/>
      <use xlink:href="#DejaVuSans-73" transform="translate(1404.75 0)"/>
      <use xlink:href="#DejaVuSans-20" transform="translate(1456.849609 0)"/>
      <use xlink:href="#DejaVuSans-28" transform="translate(1488.636719 0)"/>
      <use xlink:href="#DejaVuSans-4e" transform="translate(1527.650391 0)"/>
      <use xlink:href="#DejaVuSans-29" transform="translate(1602.455078 0)"/>
     </g>
    </g>
   </g>
   <g id="matplotlib.axis_2">
    <g id="ytick_1">
     <g id="line2d_41">
      <path d="M 58.441875 283.059938 
L 849.216875 283.059938 
" clip-path="url(#pd68d722f66)" style="fill: none; stroke-dasharray: 2.96,1.28; stroke-dashoffset: 0; stroke: #b0b0b0; stroke-opacity: 0.3; stroke-width: 0.8"/>
     </g>
     <g id="line2d_42">
      <defs>
       <path id="m289af70ebd" d="M 0 0 
L -3.5 0 
" style="stroke: #000000; stroke-width: 0.8"/>
      </defs>
      <g>
       <use xlink:href="#m289af70ebd" x="58.441875" y="283.059938" style="stroke: #000000; stroke-width: 0.8"/>
      </g>
     </g>
     <g id="text_22">
      <!-- 0.800 -->
      <g transform="translate(22.81375 286.859157) scale(0.1 -0.1)">
       <defs>
        <path id="DejaVuSans-2e" d="M 684 794 
L 1344 794 
L 1344 0 
L 684 0 
L 684 794 
z
" transform="scale(0.015625)"/>
       </defs>
       <use xlink:href="#DejaVuSans-30"/>
       <use xlink:href="#DejaVuSans-2e" transform="translate(63.623047 0)"/>
       <use xlink:href="#DejaVuSans-38" transform="translate(95.410156 0)"/>
       <use xlink:href="#DejaVuSans-30" transform="translate(159.033203 0)"/>
       <use xlink:href="#DejaVuSans-30" transform="translate(222.65625 0)"/>
      </g>
     </g>
    </g>
    <g id="ytick_2">
     <g id="line2d_43">
      <path d="M 58.441875 252.801663 
L 849.216875 252.801663 
" clip-path="url(#pd68d722f66)" style="fill: none; stroke-dasharray: 2.96,1.28; stroke-dashoffset: 0; stroke: #b0b0b0; stroke-opacity: 0.3; stroke-width: 0.8"/>
     </g>
     <g id="line2d_44">
      <g>
       <use xlink:href="#m289af70ebd" x="58.441875" y="252.801663" style="stroke: #000000; stroke-width: 0.8"/>
      </g>
     </g>
     <g id="text_23">
      <!-- 0.825 -->
      <g transform="translate(22.81375 256.600882) scale(0.1 -0.1)">
       <use xlink:href="#DejaVuSans-30"/>
       <use xlink:href="#DejaVuSans-2e" transform="translate(63.623047 0)"/>
       <use xlink:href="#DejaVuSans-38" transform="translate(95.410156 0)"/>
       <use xlink:href="#DejaVuSans-32" transform="translate(159.033203 0)"/>
       <use xlink:href="#DejaVuSans-35" transform="translate(222.65625 0)"/>
      </g>
     </g>
    </g>
    <g id="ytick_3">
     <g id="line2d_45">
      <path d="M 58.441875 222.543388 
L 849.216875 222.543388 
" clip-path="url(#pd68d722f66)" style="fill: none; stroke-dasharray: 2.96,1.28; stroke-dashoffset: 0; stroke: #b0b0b0; stroke-opacity: 0.3; stroke-width: 0.8"/>
     </g>
     <g id="line2d_46">
      <g>
       <use xlink:href="#m289af70ebd" x="58.441875" y="222.543388" style="stroke: #000000; stroke-width: 0.8"/>
      </g>
     </g>
     <g id="text_24">
      <!-- 0.850 -->
      <g transform="translate(22.81375 226.342606) scale(0.1 -0.1)">
       <use xlink:href="#DejaVuSans-30"/>
       <use xlink:href="#DejaVuSans-2e" transform="translate(63.623047 0)"/>
       <use xlink:href="#DejaVuSans-38" transform="translate(95.410156 0)"/>
       <use xlink:href="#DejaVuSans-35" transform="translate(159.033203 0)"/>
       <use xlink:href="#DejaVuSans-30" transform="translate(222.65625 0)"/>
      </g>
     </g>
    </g>
    <g id="ytick_4">
     <g id="line2d_47">
      <path d="M 58.441875 192.285112 
L 849.216875 192.285112 
" clip-path="url(#pd68d722f66)" style="fill: none; stroke-dasharray: 2.96,1.28; stroke-dashoffset: 0; stroke: #b0b0b0; stroke-opacity: 0.3; stroke-width: 0.8"/>
     </g>
     <g id="line2d_48">
      <g>
       <use xlink:href="#m289af70ebd" x="58.441875" y="192.285112" style="stroke: #000000; stroke-width: 0.8"/>
      </g>
     </g>
     <g id="text_25">
      <!-- 0.875 -->
      <g transform="translate(22.81375 196.084331) scale(0.1 -0.1)">
       <use xlink:href="#DejaVuSans-30"/>
       <use xlink:href="#DejaVuSans-2e" transform="translate(63.623047 0)"/>
       <use xlink:href="#DejaVuSans-38" transform="translate(95.410156 0)"/>
       <use xlink:href="#DejaVuSans-37" transform="translate(159.033203 0)"/>
       <use xlink:href="#DejaVuSans-35" transform="translate(222.65625 0)"/>
      </g>
     </g>
    </g>
    <g id="ytick_5">
     <g id="line2d_49">
      <path d="M 58.441875 162.026837 
L 849.216875 162.026837 
" clip-path="url(#pd68d722f66)" style="fill: none; stroke-dasharray: 2.96,1.28; stroke-dashoffset: 0; stroke: #b0b0b0; stroke-opacity: 0.3; stroke-width: 0.8"/>
     </g>
     <g id="line2d_50">
      <g>
       <use xlink:href="#m289af70ebd" x="58.441875" y="162.026837" style="stroke: #000000; stroke-width: 0.8"/>
      </g>
     </g>
     <g id="text_26">
      <!-- 0.900 -->
      <g transform="translate(22.81375 165.826055) scale(0.1 -0.1)">
       <use xlink:href="#DejaVuSans-30"/>
       <use xlink:href="#DejaVuSans-2e" transform="translate(63.623047 0)"/>
       <use xlink:href="#DejaVuSans-39" transform="translate(95.410156 0)"/>
       <use xlink:href="#DejaVuSans-30" transform="translate(159.033203 0)"/>
       <use xlink:href="#DejaVuSans-30" transform="translate(222.65625 0)"/>
      </g>
     </g>
    </g>
    <g id="ytick_6">
     <g id="line2d_51">
      <path d="M 58.441875 131.768561 
L 849.216875 131.768561 
" clip-path="url(#pd68d722f66)" style="fill: none; stroke-dasharray: 2.96,1.28; stroke-dashoffset: 0; stroke: #b0b0b0; stroke-opacity: 0.3; stroke-width: 0.8"/>
     </g>
     <g id="line2d_52">
      <g>
       <use xlink:href="#m289af70ebd" x="58.441875" y="131.768561" style="stroke: #000000; stroke-width: 0.8"/>
      </g>
     </g>
     <g id="text_27">
      <!-- 0.925 -->
      <g transform="translate(22.81375 135.56778) scale(0.1 -0.1)">
       <use xlink:href="#DejaVuSans-30"/>
       <use xlink:href="#DejaVuSans-2e" transform="translate(63.623047 0)"/>
       <use xlink:href="#DejaVuSans-39" transform="translate(95.410156 0)"/>
       <use xlink:href="#DejaVuSans-32" transform="translate(159.033203 0)"/>
       <use xlink:href="#DejaVuSans-35" transform="translate(222.65625 0)"/>
      </g>
     </g>
    </g>
    <g id="ytick_7">
     <g id="line2d_53">
      <path d="M 58.441875 101.510286 
L 849.216875 101.510286 
" clip-path="url(#pd68d722f66)" style="fill: none; stroke-dasharray: 2.96,1.28; stroke-dashoffset: 0; stroke: #b0b0b0; stroke-opacity: 0.3; stroke-width: 0.8"/>
     </g>
     <g id="line2d_54">
      <g>
       <use xlink:href="#m289af70ebd" x="58.441875" y="101.510286" style="stroke: #000000; stroke-width: 0.8"/>
      </g>
     </g>
     <g id="text_28">
      <!-- 0.950 -->
      <g transform="translate(22.81375 105.309504) scale(0.1 -0.1)">
       <use xlink:href="#DejaVuSans-30"/>
       <use xlink:href="#DejaVuSans-2e" transform="translate(63.623047 0)"/>
       <use xlink:href="#DejaVuSans-39" transform="translate(95.410156 0)"/>
       <use xlink:href="#DejaVuSans-35" transform="translate(159.033203 0)"/>
       <use xlink:href="#DejaVuSans-30" transform="translate(222.65625 0)"/>
      </g>
     </g>
    </g>
    <g id="ytick_8">
     <g id="line2d_55">
      <path d="M 58.441875 71.25201 
L 849.216875 71.25201 
" clip-path="url(#pd68d722f66)" style="fill: none; stroke-dasharray: 2.96,1.28; stroke-dashoffset: 0; stroke: #b0b0b0; stroke-opacity: 0.3; stroke-width: 0.8"/>
     </g>
     <g id="line2d_56">
      <g>
       <use xlink:href="#m289af70ebd" x="58.441875" y="71.25201" style="stroke: #000000; stroke-width: 0.8"/>
      </g>
     </g>
     <g id="text_29">
      <!-- 0.975 -->
      <g transform="translate(22.81375 75.051229) scale(0.1 -0.1)">
       <use xlink:href="#DejaVuSans-30"/>
       <use xlink:href="#DejaVuSans-2e" transform="translate(63.623047 0)"/>
       <use xlink:href="#DejaVuSans-39" transform="translate(95.410156 0)"/>
       <use xlink:href="#DejaVuSans-37" transform="translate(159.033203 0)"/>
       <use xlink:href="#DejaVuSans-35" transform="translate(222.65625 0)"/>
      </g>
     </g>
    </g>
    <g id="ytick_9">
     <g id="line2d_57">
      <path d="M 58.441875 40.993735 
L 849.216875 40.993735 
" clip-path="url(#pd68d722f66)" style="fill: none; stroke-dasharray: 2.96,1.28; stroke-dashoffset: 0; stroke: #b0b0b0; stroke-opacity: 0.3; stroke-width: 0.8"/>
     </g>
     <g id="line2d_58">
      <g>
       <use xlink:href="#m289af70ebd" x="58.441875" y="40.993735" style="stroke: #000000; stroke-width: 0.8"/>
      </g>
     </g>
     <g id="text_30">
      <!-- 1.000 -->
      <g transform="translate(22.81375 44.792953) scale(0.1 -0.1)">
       <use xlink:href="#DejaVuSans-31"/>
       <use xlink:href="#DejaVuSans-2e" transform="translate(63.623047 0)"/>
       <use xlink:href="#DejaVuSans-30" transform="translate(95.410156 0)"/>
       <use xlink:href="#DejaVuSans-30" transform="translate(159.033203 0)"/>
       <use xlink:href="#DejaVuSans-30" transform="translate(222.65625 0)"/>
      </g>
     </g>
    </g>
    <g id="text_31">
     <!-- Score -->
     <g transform="translate(16.318125 182.274831) rotate(-90) scale(0.12 -0.12)">
      <use xlink:href="#DejaVuSans-53"/>
      <use xlink:href="#DejaVuSans-63" transform="translate(63.476562 0)"/>
      <use xlink:href="#DejaVuSans-6f" transform="translate(118.457031 0)"/>
      <use xlink:href="#DejaVuSans-72" transform="translate(179.638672 0)"/>
      <use xlink:href="#DejaVuSans-65" transform="translate(218.501953 0)"/>
     </g>
    </g>
   </g>
   <g id="line2d_59">
    <path d="M 94.386193 174.419328 
L 132.222318 140.493383 
L 170.058442 142.750411 
L 207.894566 143.173603 
L 245.730691 138.945203 
L 283.566815 155.908176 
L 321.40294 152.607273 
L 359.239064 131.42648 
L 397.075188 143.438099 
L 434.911313 169.009516 
L 472.747437 142.556447 
L 510.583562 149.662558 
L 548.419686 140.585075 
L 586.25581 155.520249 
L 624.091935 155.164062 
L 661.928059 156.102139 
L 699.764184 168.74502 
L 737.600308 158.888158 
L 775.436432 147.691185 
L 813.272557 164.791695 
" clip-path="url(#pd68d722f66)" style="fill: none; stroke: #2e75b6; stroke-width: 2; stroke-linecap: square"/>
    <defs>
     <path id="mbb4a7f51fd" d="M 0 3.5 
C 0.928211 3.5 1.81853 3.131218 2.474874 2.474874 
C 3.131218 1.81853 3.5 0.928211 3.5 0 
C 3.5 -0.928211 3.131218 -1.81853 2.474874 -2.474874 
C 1.81853 -3.131218 0.928211 -3.5 0 -3.5 
C -0.928211 -3.5 -1.81853 -3.131218 -2.474874 -2.474874 
C -3.131218 -1.81853 -3.5 -0.928211 -3.5 0 
C -3.5 0.928211 -3.131218 1.81853 -2.474874 2.474874 
C -1.81853 3.131218 -0.928211 3.5 0 3.5 
z
" style="stroke: #2e75b6"/>
    </defs>
    <g clip-path="url(#pd68d722f66)">
     <use xlink:href="#mbb4a7f51fd" x="94.386193" y="174.419328" style="fill: #2e75b6; stroke: #2e75b6"/>
     <use xlink:href="#mbb4a7f51fd" x="132.222318" y="140.493383" style="fill: #2e75b6; stroke: #2e75b6"/>
     <use xlink:href="#mbb4a7f51fd" x="170.058442" y="142.750411" style="fill: #2e75b6; stroke: #2e75b6"/>
     <use xlink:href="#mbb4a7f51fd" x="207.894566" y="143.173603" style="fill: #2e75b6; stroke: #2e75b6"/>
     <use xlink:href="#mbb4a7f51fd" x="245.730691" y="138.945203" style="fill: #2e75b6; stroke: #2e75b6"/>
     <use xlink:href="#mbb4a7f51fd" x="283.566815" y="155.908176" style="fill: #2e75b6; stroke: #2e75b6"/>
     <use xlink:href="#mbb4a7f51fd" x="321.40294" y="152.607273" style="fill: #2e75b6; stroke: #2e75b6"/>
     <use xlink:href="#mbb4a7f51fd" x="359.239064" y="131.42648" style="fill: #2e75b6; stroke: #2e75b6"/>
     <use xlink:href="#mbb4a7f51fd" x="397.075188" y="143.438099" style="fill: #2e75b6; stroke: #2e75b6"/>
     <use xlink:href="#mbb4a7f51fd" x="434.911313" y="169.009516" style="fill: #2e75b6; stroke: #2e75b6"/>
     <use xlink:href="#mbb4a7f51fd" x="472.747437" y="142.556447" style="fill: #2e75b6; stroke: #2e75b6"/>
     <use xlink:href="#mbb4a7f51fd" x="510.583562" y="149.662558" style="fill: #2e75b6; stroke: #2e75b6"/>
     <use xlink:href="#mbb4a7f51fd" x="548.419686" y="140.585075" style="fill: #2e75b6; stroke: #2e75b6"/>
     <use xlink:href="#mbb4a7f51fd" x="586.25581" y="155.520249" style="fill: #2e75b6; stroke: #2e75b6"/>
     <use xlink:href="#mbb4a7f51fd" x="624.091935" y="155.164062" style="fill: #2e75b6; stroke: #2e75b6"/>
     <use xlink:href="#mbb4a7f51fd" x="661.928059" y="156.102139" style="fill: #2e75b6; stroke: #2e75b6"/>
     <use xlink:href="#mbb4a7f51fd" x="699.764184" y="168.74502" style="fill: #2e75b6; stroke: #2e75b6"/>
     <use xlink:href="#mbb4a7f51fd" x="737.600308" y="158.888158" style="fill: #2e75b6; stroke: #2e75b6"/>
     <use xlink:href="#mbb4a7f51fd" x="775.436432" y="147.691185" style="fill: #2e75b6; stroke: #2e75b6"/>
     <use xlink:href="#mbb4a7f51fd" x="813.272557" y="164.791695" style="fill: #2e75b6; stroke: #2e75b6"/>
    </g>
   </g>
   <g id="line2d_60">
    <path d="M 94.386193 230.635622 
L 132.222318 184.295422 
L 170.058442 173.79572 
L 207.894566 175.115692 
L 245.730691 174.57557 
L 283.566815 176.549548 
L 321.40294 175.638286 
L 359.239064 159.82478 
L 397.075188 176.089076 
L 434.911313 200.976365 
L 472.747437 175.625063 
L 510.583562 167.730404 
L 548.419686 165.023556 
L 586.25581 187.877727 
L 624.091935 186.212768 
L 661.928059 173.274983 
L 699.764184 193.984739 
L 737.600308 186.726264 
L 775.436432 165.990834 
L 813.272557 186.998711 
" clip-path="url(#pd68d722f66)" style="fill: none; stroke: #e8702a; stroke-width: 2; stroke-linecap: square"/>
    <defs>
     <path id="m5b55cf7002" d="M -3.5 3.5 
L 3.5 3.5 
L 3.5 -3.5 
L -3.5 -3.5 
z
" style="stroke: #e8702a; stroke-linejoin: miter"/>
    </defs>
    <g clip-path="url(#pd68d722f66)">
     <use xlink:href="#m5b55cf7002" x="94.386193" y="230.635622" style="fill: #e8702a; stroke: #e8702a; stroke-linejoin: miter"/>
     <use xlink:href="#m5b55cf7002" x="132.222318" y="184.295422" style="fill: #e8702a; stroke: #e8702a; stroke-linejoin: miter"/>
     <use xlink:href="#m5b55cf7002" x="170.058442" y="173.79572" style="fill: #e8702a; stroke: #e8702a; stroke-linejoin: miter"/>
     <use xlink:href="#m5b55cf7002" x="207.894566" y="175.115692" style="fill: #e8702a; stroke: #e8702a; stroke-linejoin: miter"/>
     <use xlink:href="#m5b55cf7002" x="245.730691" y="174.57557" style="fill: #e8702a; stroke: #e8702a; stroke-linejoin: miter"/>
     <use xlink:href="#m5b55cf7002" x="283.566815" y="176.549548" style="fill: #e8702a; stroke: #e8702a; stroke-linejoin: miter"/>
     <use xlink:href="#m5b55cf7002" x="321.40294" y="175.638286" style="fill: #e8702a; stroke: #e8702a; stroke-linejoin: miter"/>
     <use xlink:href="#m5b55cf7002" x="359.239064" y="159.82478" style="fill: #e8702a; stroke: #e8702a; stroke-linejoin: miter"/>
     <use xlink:href="#m5b55cf7002" x="397.075188" y="176.089076" style="fill: #e8702a; stroke: #e8702a; stroke-linejoin: miter"/>
     <use xlink:href="#m5b55cf7002" x="434.911313" y="200.976365" style="fill: #e8702a; stroke: #e8702a; stroke-linejoin: miter"/>
     <use xlink:href="#m5b55cf7002" x="472.747437" y="175.625063" style="fill: #e8702a; stroke: #e8702a; stroke-linejoin: miter"/>
     <use xlink:href="#m5b55cf7002" x="510.583562" y="167.730404" style="fill: #e8702a; stroke: #e8702a; stroke-linejoin: miter"/>
     <use xlink:href="#m5b55cf7002" x="548.419686" y="165.023556" style="fill: #e8702a; stroke: #e8702a; stroke-linejoin: miter"/>
     <use xlink:href="#m5b55cf7002" x="586.25581" y="187.877727" style="fill: #e8702a; stroke: #e8702a; stroke-linejoin: miter"/>
     <use xlink:href="#m5b55cf7002" x="624.091935" y="186.212768" style="fill: #e8702a; stroke: #e8702a; stroke-linejoin: miter"/>
     <use xlink:href="#m5b55cf7002" x="661.928059" y="173.274983" style="fill: #e8702a; stroke: #e8702a; stroke-linejoin: miter"/>
     <use xlink:href="#m5b55cf7002" x="699.764184" y="193.984739" style="fill: #e8702a; stroke: #e8702a; stroke-linejoin: miter"/>
     <use xlink:href="#m5b55cf7002" x="737.600308" y="186.726264" style="fill: #e8702a; stroke: #e8702a; stroke-linejoin: miter"/>
     <use xlink:href="#m5b55cf7002" x="775.436432" y="165.990834" style="fill: #e8702a; stroke: #e8702a; stroke-linejoin: miter"/>
     <use xlink:href="#m5b55cf7002" x="813.272557" y="186.998711" style="fill: #e8702a; stroke: #e8702a; stroke-linejoin: miter"/>
    </g>
   </g>
   <g id="line2d_61">
    <path d="M 94.386193 89.363727 
L 132.222318 74.79737 
L 170.058442 74.55587 
L 207.894566 73.487491 
L 245.730691 70.542279 
L 283.566815 69.814031 
L 321.40294 67.924811 
L 359.239064 64.99647 
L 397.075188 73.099898 
L 434.911313 72.280267 
L 472.747437 75.039033 
L 510.583562 62.745482 
L 548.419686 67.287866 
L 586.25581 68.629804 
L 624.091935 73.048646 
L 661.928059 68.011542 
L 699.764184 69.908484 
L 737.600308 75.552804 
L 775.436432 66.662238 
L 813.272557 71.964465 
" clip-path="url(#pd68d722f66)" style="fill: none; stroke: #2ca02c; stroke-width: 2; stroke-linecap: square"/>
    <defs>
     <path id="mba4aa4e8eb" d="M 0 -3.5 
L -3.5 3.5 
L 3.5 3.5 
z
" style="stroke: #2ca02c; stroke-linejoin: miter"/>
    </defs>
    <g clip-path="url(#pd68d722f66)">
     <use xlink:href="#mba4aa4e8eb" x="94.386193" y="89.363727" style="fill: #2ca02c; stroke: #2ca02c; stroke-linejoin: miter"/>
     <use xlink:href="#mba4aa4e8eb" x="132.222318" y="74.79737" style="fill: #2ca02c; stroke: #2ca02c; stroke-linejoin: miter"/>
     <use xlink:href="#mba4aa4e8eb" x="170.058442" y="74.55587" style="fill: #2ca02c; stroke: #2ca02c; stroke-linejoin: miter"/>
     <use xlink:href="#mba4aa4e8eb" x="207.894566" y="73.487491" style="fill: #2ca02c; stroke: #2ca02c; stroke-linejoin: miter"/>
     <use xlink:href="#mba4aa4e8eb" x="245.730691" y="70.542279" style="fill: #2ca02c; stroke: #2ca02c; stroke-linejoin: miter"/>
     <use xlink:href="#mba4aa4e8eb" x="283.566815" y="69.814031" style="fill: #2ca02c; stroke: #2ca02c; stroke-linejoin: miter"/>
     <use xlink:href="#mba4aa4e8eb" x="321.40294" y="67.924811" style="fill: #2ca02c; stroke: #2ca02c; stroke-linejoin: miter"/>
     <use xlink:href="#mba4aa4e8eb" x="359.239064" y="64.99647" style="fill: #2ca02c; stroke: #2ca02c; stroke-linejoin: miter"/>
     <use xlink:href="#mba4aa4e8eb" x="397.075188" y="73.099898" style="fill: #2ca02c; stroke: #2ca02c; stroke-linejoin: miter"/>
     <use xlink:href="#mba4aa4e8eb" x="434.911313" y="72.280267" style="fill: #2ca02c; stroke: #2ca02c; stroke-linejoin: miter"/>
     <use xlink:href="#mba4aa4e8eb" x="472.747437" y="75.039033" style="fill: #2ca02c; stroke: #2ca02c; stroke-linejoin: miter"/>
     <use xlink:href="#mba4aa4e8eb" x="510.583562" y="62.745482" style="fill: #2ca02c; stroke: #2ca02c; stroke-linejoin: miter"/>
     <use xlink:href="#mba4aa4e8eb" x="548.419686" y="67.287866" style="fill: #2ca02c; stroke: #2ca02c; stroke-linejoin: miter"/>
     <use xlink:href="#mba4aa4e8eb" x="586.25581" y="68.629804" style="fill: #2ca02c; stroke: #2ca02c; stroke-linejoin: miter"/>
     <use xlink:href="#mba4aa4e8eb" x="624.091935" y="73.048646" style="fill: #2ca02c; stroke: #2ca02c; stroke-linejoin: miter"/>
     <use xlink:href="#mba4aa4e8eb" x="661.928059" y="68.011542" style="fill: #2ca02c; stroke: #2ca02c; stroke-linejoin: miter"/>
     <use xlink:href="#mba4aa4e8eb" x="699.764184" y="69.908484" style="fill: #2ca02c; stroke: #2ca02c; stroke-linejoin: miter"/>
     <use xlink:href="#mba4aa4e8eb" x="737.600308" y="75.552804" style="fill: #2ca02c; stroke: #2ca02c; stroke-linejoin: miter"/>
     <use xlink:href="#mba4aa4e8eb" x="775.436432" y="66.662238" style="fill: #2ca02c; stroke: #2ca02c; stroke-linejoin: miter"/>
     <use xlink:href="#mba4aa4e8eb" x="813.272557" y="71.964465" style="fill: #2ca02c; stroke: #2ca02c; stroke-linejoin: miter"/>
    </g>
   </g>
   <g id="line2d_62">
    <path d="M 359.239064 293.308912 
L 359.239064 37.635125 
" clip-path="url(#pd68d722f66)" style="fill: none; stroke-dasharray: 5.55,2.4; stroke-dashoffset: 0; stroke: #daa520; stroke-opacity: 0.8; stroke-width: 1.5"/>
   </g>
   <g id="patch_4">
    <path d="M 58.441875 293.308912 
L 58.441875 37.635125 
" style="fill: none; stroke: #000000; stroke-width: 0.8; stroke-linejoin: miter; stroke-linecap: square"/>
   </g>
   <g id="patch_5">
    <path d="M 849.216875 293.308912 
L 849.216875 37.635125 
" style="fill: none; stroke: #000000; stroke-width: 0.8; stroke-linejoin: miter; stroke-linecap: square"/>
   </g>
   <g id="patch_6">
    <path d="M 58.441875 293.308912 
L 849.216875 293.308912 
" style="fill: none; stroke: #000000; stroke-width: 0.8; stroke-linejoin: miter; stroke-linecap: square"/>
   </g>
   <g id="patch_7">
    <path d="M 58.441875 37.635125 
L 849.216875 37.635125 
" style="fill: none; stroke: #000000; stroke-width: 0.8; stroke-linejoin: miter; stroke-linecap: square"/>
   </g>
   <g id="text_32">
    <!-- Classification Performance vs. Number of Selected Features -->
    <g transform="translate(233.337187 17.077969) scale(0.13 -0.13)">
     <defs>
      <path id="DejaVuSans-Bold-43" d="M 4288 256 
Q 3956 84 3597 -3 
Q 3238 -91 2847 -91 
Q 1681 -91 1000 561 
Q 319 1213 319 2328 
Q 319 3447 1000 4098 
Q 1681 4750 2847 4750 
Q 3238 4750 3597 4662 
Q 3956 4575 4288 4403 
L 4288 3438 
Q 3953 3666 3628 3772 
Q 3303 3878 2944 3878 
Q 2300 3878 1931 3465 
Q 1563 3053 1563 2328 
Q 1563 1606 1931 1193 
Q 2300 781 2944 781 
Q 3303 781 3628 887 
Q 3953 994 4288 1222 
L 4288 256 
z
" transform="scale(0.015625)"/>
      <path id="DejaVuSans-Bold-6c" d="M 538 4863 
L 1656 4863 
L 1656 0 
L 538 0 
L 538 4863 
z
" transform="scale(0.015625)"/>
      <path id="DejaVuSans-Bold-61" d="M 2106 1575 
Q 1756 1575 1579 1456 
Q 1403 1338 1403 1106 
Q 1403 894 1545 773 
Q 1688 653 1941 653 
Q 2256 653 2472 879 
Q 2688 1106 2688 1447 
L 2688 1575 
L 2106 1575 
z
M 3816 1997 
L 3816 0 
L 2688 0 
L 2688 519 
Q 2463 200 2181 54 
Q 1900 -91 1497 -91 
Q 953 -91 614 226 
Q 275 544 275 1050 
Q 275 1666 698 1953 
Q 1122 2241 2028 2241 
L 2688 2241 
L 2688 2328 
Q 2688 2594 2478 2717 
Q 2269 2841 1825 2841 
Q 1466 2841 1156 2769 
Q 847 2697 581 2553 
L 581 3406 
Q 941 3494 1303 3539 
Q 1666 3584 2028 3584 
Q 2975 3584 3395 3211 
Q 3816 2838 3816 1997 
z
" transform="scale(0.015625)"/>
      <path id="DejaVuSans-Bold-73" d="M 3272 3391 
L 3272 2541 
Q 2913 2691 2578 2766 
Q 2244 2841 1947 2841 
Q 1628 2841 1473 2761 
Q 1319 2681 1319 2516 
Q 1319 2381 1436 2309 
Q 1553 2238 1856 2203 
L 2053 2175 
Q 2913 2066 3209 1816 
Q 3506 1566 3506 1031 
Q 3506 472 3093 190 
Q 2681 -91 1863 -91 
Q 1516 -91 1145 -36 
Q 775 19 384 128 
L 384 978 
Q 719 816 1070 734 
Q 1422 653 1784 653 
Q 2113 653 2278 743 
Q 2444 834 2444 1013 
Q 2444 1163 2330 1236 
Q 2216 1309 1875 1350 
L 1678 1375 
Q 931 1469 631 1722 
Q 331 1975 331 2491 
Q 331 3047 712 3315 
Q 1094 3584 1881 3584 
Q 2191 3584 2531 3537 
Q 2872 3491 3272 3391 
z
" transform="scale(0.015625)"/>
      <path id="DejaVuSans-Bold-69" d="M 538 3500 
L 1656 3500 
L 1656 0 
L 538 0 
L 538 3500 
z
M 538 4863 
L 1656 4863 
L 1656 3950 
L 538 3950 
L 538 4863 
z
" transform="scale(0.015625)"/>
      <path id="DejaVuSans-Bold-66" d="M 2841 4863 
L 2841 4128 
L 2222 4128 
Q 1984 4128 1890 4042 
Q 1797 3956 1797 3744 
L 1797 3500 
L 2753 3500 
L 2753 2700 
L 1797 2700 
L 1797 0 
L 678 0 
L 678 2700 
L 122 2700 
L 122 3500 
L 678 3500 
L 678 3744 
Q 678 4316 997 4589 
Q 1316 4863 1984 4863 
L 2841 4863 
z
" transform="scale(0.015625)"/>
      <path id="DejaVuSans-Bold-63" d="M 3366 3391 
L 3366 2478 
Q 3138 2634 2908 2709 
Q 2678 2784 2431 2784 
Q 1963 2784 1702 2511 
Q 1441 2238 1441 1747 
Q 1441 1256 1702 982 
Q 1963 709 2431 709 
Q 2694 709 2930 787 
Q 3166 866 3366 1019 
L 3366 103 
Q 3103 6 2833 -42 
Q 2563 -91 2291 -91 
Q 1344 -91 809 395 
Q 275 881 275 1747 
Q 275 2613 809 3098 
Q 1344 3584 2291 3584 
Q 2566 3584 2833 3536 
Q 3100 3488 3366 3391 
z
" transform="scale(0.015625)"/>
      <path id="DejaVuSans-Bold-74" d="M 1759 4494 
L 1759 3500 
L 2913 3500 
L 2913 2700 
L 1759 2700 
L 1759 1216 
Q 1759 972 1856 886 
Q 1953 800 2241 800 
L 2816 800 
L 2816 0 
L 1856 0 
Q 1194 0 917 276 
Q 641 553 641 1216 
L 641 2700 
L 84 2700 
L 84 3500 
L 641 3500 
L 641 4494 
L 1759 4494 
z
" transform="scale(0.015625)"/>
      <path id="DejaVuSans-Bold-6f" d="M 2203 2784 
Q 1831 2784 1636 2517 
Q 1441 2250 1441 1747 
Q 1441 1244 1636 976 
Q 1831 709 2203 709 
Q 2569 709 2762 976 
Q 2956 1244 2956 1747 
Q 2956 2250 2762 2517 
Q 2569 2784 2203 2784 
z
M 2203 3584 
Q 3106 3584 3614 3096 
Q 4122 2609 4122 1747 
Q 4122 884 3614 396 
Q 3106 -91 2203 -91 
Q 1297 -91 786 396 
Q 275 884 275 1747 
Q 275 2609 786 3096 
Q 1297 3584 2203 3584 
z
" transform="scale(0.015625)"/>
      <path id="DejaVuSans-Bold-6e" d="M 4056 2131 
L 4056 0 
L 2931 0 
L 2931 347 
L 2931 1631 
Q 2931 2084 2911 2256 
Q 2891 2428 2841 2509 
Q 2775 2619 2662 2680 
Q 2550 2741 2406 2741 
Q 2056 2741 1856 2470 
Q 1656 2200 1656 1722 
L 1656 0 
L 538 0 
L 538 3500 
L 1656 3500 
L 1656 2988 
Q 1909 3294 2193 3439 
Q 2478 3584 2822 3584 
Q 3428 3584 3742 3212 
Q 4056 2841 4056 2131 
z
" transform="scale(0.015625)"/>
      <path id="DejaVuSans-Bold-20" transform="scale(0.015625)"/>
      <path id="DejaVuSans-Bold-50" d="M 588 4666 
L 2584 4666 
Q 3475 4666 3951 4270 
Q 4428 3875 4428 3144 
Q 4428 2409 3951 2014 
Q 3475 1619 2584 1619 
L 1791 1619 
L 1791 0 
L 588 0 
L 588 4666 
z
M 1791 3794 
L 1791 2491 
L 2456 2491 
Q 2806 2491 2997 2661 
Q 3188 2831 3188 3144 
Q 3188 3456 2997 3625 
Q 2806 3794 2456 3794 
L 1791 3794 
z
" transform="scale(0.015625)"/>
      <path id="DejaVuSans-Bold-65" d="M 4031 1759 
L 4031 1441 
L 1416 1441 
Q 1456 1047 1700 850 
Q 1944 653 2381 653 
Q 2734 653 3104 758 
Q 3475 863 3866 1075 
L 3866 213 
Q 3469 63 3072 -14 
Q 2675 -91 2278 -91 
Q 1328 -91 801 392 
Q 275 875 275 1747 
Q 275 2603 792 3093 
Q 1309 3584 2216 3584 
Q 3041 3584 3536 3087 
Q 4031 2591 4031 1759 
z
M 2881 2131 
Q 2881 2450 2695 2645 
Q 2509 2841 2209 2841 
Q 1884 2841 1681 2658 
Q 1478 2475 1428 2131 
L 2881 2131 
z
" transform="scale(0.015625)"/>
      <path id="DejaVuSans-Bold-72" d="M 3138 2547 
Q 2991 2616 2845 2648 
Q 2700 2681 2553 2681 
Q 2122 2681 1889 2404 
Q 1656 2128 1656 1613 
L 1656 0 
L 538 0 
L 538 3500 
L 1656 3500 
L 1656 2925 
Q 1872 3269 2151 3426 
Q 2431 3584 2822 3584 
Q 2878 3584 2943 3579 
Q 3009 3575 3134 3559 
L 3138 2547 
z
" transform="scale(0.015625)"/>
      <path id="DejaVuSans-Bold-6d" d="M 3781 2919 
Q 3994 3244 4286 3414 
Q 4578 3584 4928 3584 
Q 5531 3584 5847 3212 
Q 6163 2841 6163 2131 
L 6163 0 
L 5038 0 
L 5038 1825 
Q 5041 1866 5042 1909 
Q 5044 1953 5044 2034 
Q 5044 2406 4934 2573 
Q 4825 2741 4581 2741 
Q 4263 2741 4089 2478 
Q 3916 2216 3909 1719 
L 3909 0 
L 2784 0 
L 2784 1825 
Q 2784 2406 2684 2573 
Q 2584 2741 2328 2741 
Q 2006 2741 1831 2477 
Q 1656 2213 1656 1722 
L 1656 0 
L 531 0 
L 531 3500 
L 1656 3500 
L 1656 2988 
Q 1863 3284 2130 3434 
Q 2397 3584 2719 3584 
Q 3081 3584 3359 3409 
Q 3638 3234 3781 2919 
z
" transform="scale(0.015625)"/>
      <path id="DejaVuSans-Bold-76" d="M 97 3500 
L 1216 3500 
L 2088 1081 
L 2956 3500 
L 4078 3500 
L 2700 0 
L 1472 0 
L 97 3500 
z
" transform="scale(0.015625)"/>
      <path id="DejaVuSans-Bold-2e" d="M 653 1209 
L 1778 1209 
L 1778 0 
L 653 0 
L 653 1209 
z
" transform="scale(0.015625)"/>
      <path id="DejaVuSans-Bold-4e" d="M 588 4666 
L 1931 4666 
L 3628 1466 
L 3628 4666 
L 4769 4666 
L 4769 0 
L 3425 0 
L 1728 3200 
L 1728 0 
L 588 0 
L 588 4666 
z
" transform="scale(0.015625)"/>
      <path id="DejaVuSans-Bold-75" d="M 500 1363 
L 500 3500 
L 1625 3500 
L 1625 3150 
Q 1625 2866 1622 2436 
Q 1619 2006 1619 1863 
Q 1619 1441 1641 1255 
Q 1663 1069 1716 984 
Q 1784 875 1895 815 
Q 2006 756 2150 756 
Q 2500 756 2700 1025 
Q 2900 1294 2900 1772 
L 2900 3500 
L 4019 3500 
L 4019 0 
L 2900 0 
L 2900 506 
Q 2647 200 2364 54 
Q 2081 -91 1741 -91 
Q 1134 -91 817 281 
Q 500 653 500 1363 
z
" transform="scale(0.015625)"/>
      <path id="DejaVuSans-Bold-62" d="M 2400 722 
Q 2759 722 2948 984 
Q 3138 1247 3138 1747 
Q 3138 2247 2948 2509 
Q 2759 2772 2400 2772 
Q 2041 2772 1848 2508 
Q 1656 2244 1656 1747 
Q 1656 1250 1848 986 
Q 2041 722 2400 722 
z
M 1656 2988 
Q 1888 3294 2169 3439 
Q 2450 3584 2816 3584 
Q 3463 3584 3878 3070 
Q 4294 2556 4294 1747 
Q 4294 938 3878 423 
Q 3463 -91 2816 -91 
Q 2450 -91 2169 54 
Q 1888 200 1656 506 
L 1656 0 
L 538 0 
L 538 4863 
L 1656 4863 
L 1656 2988 
z
" transform="scale(0.015625)"/>
      <path id="DejaVuSans-Bold-53" d="M 3834 4519 
L 3834 3531 
Q 3450 3703 3084 3790 
Q 2719 3878 2394 3878 
Q 1963 3878 1756 3759 
Q 1550 3641 1550 3391 
Q 1550 3203 1689 3098 
Q 1828 2994 2194 2919 
L 2706 2816 
Q 3484 2659 3812 2340 
Q 4141 2022 4141 1434 
Q 4141 663 3683 286 
Q 3225 -91 2284 -91 
Q 1841 -91 1394 -6 
Q 947 78 500 244 
L 500 1259 
Q 947 1022 1364 901 
Q 1781 781 2169 781 
Q 2563 781 2772 912 
Q 2981 1044 2981 1288 
Q 2981 1506 2839 1625 
Q 2697 1744 2272 1838 
L 1806 1941 
Q 1106 2091 782 2419 
Q 459 2747 459 3303 
Q 459 4000 909 4375 
Q 1359 4750 2203 4750 
Q 2588 4750 2994 4692 
Q 3400 4634 3834 4519 
z
" transform="scale(0.015625)"/>
      <path id="DejaVuSans-Bold-64" d="M 2919 2988 
L 2919 4863 
L 4044 4863 
L 4044 0 
L 2919 0 
L 2919 506 
Q 2688 197 2409 53 
Q 2131 -91 1766 -91 
Q 1119 -91 703 423 
Q 288 938 288 1747 
Q 288 2556 703 3070 
Q 1119 3584 1766 3584 
Q 2128 3584 2408 3439 
Q 2688 3294 2919 2988 
z
M 2181 722 
Q 2541 722 2730 984 
Q 2919 1247 2919 1747 
Q 2919 2247 2730 2509 
Q 2541 2772 2181 2772 
Q 1825 2772 1636 2509 
Q 1447 2247 1447 1747 
Q 1447 1247 1636 984 
Q 1825 722 2181 722 
z
" transform="scale(0.015625)"/>
      <path id="DejaVuSans-Bold-46" d="M 588 4666 
L 3834 4666 
L 3834 3756 
L 1791 3756 
L 1791 2888 
L 3713 2888 
L 3713 1978 
L 1791 1978 
L 1791 0 
L 588 0 
L 588 4666 
z
" transform="scale(0.015625)"/>
     </defs>
     <use xlink:href="#DejaVuSans-Bold-43"/>
     <use xlink:href="#DejaVuSans-Bold-6c" transform="translate(73.388672 0)"/>
     <use xlink:href="#DejaVuSans-Bold-61" transform="translate(107.666016 0)"/>
     <use xlink:href="#DejaVuSans-Bold-73" transform="translate(175.146484 0)"/>
     <use xlink:href="#DejaVuSans-Bold-73" transform="translate(234.667969 0)"/>
     <use xlink:href="#DejaVuSans-Bold-69" transform="translate(294.189453 0)"/>
     <use xlink:href="#DejaVuSans-Bold-66" transform="translate(328.466797 0)"/>
     <use xlink:href="#DejaVuSans-Bold-69" transform="translate(371.972656 0)"/>
     <use xlink:href="#DejaVuSans-Bold-63" transform="translate(406.25 0)"/>
     <use xlink:href="#DejaVuSans-Bold-61" transform="translate(465.527344 0)"/>
     <use xlink:href="#DejaVuSans-Bold-74" transform="translate(533.007812 0)"/>
     <use xlink:href="#DejaVuSans-Bold-69" transform="translate(580.810547 0)"/>
     <use xlink:href="#DejaVuSans-Bold-6f" transform="translate(615.087891 0)"/>
     <use xlink:href="#DejaVuSans-Bold-6e" transform="translate(683.789062 0)"/>
     <use xlink:href="#DejaVuSans-Bold-20" transform="translate(754.980469 0)"/>
     <use xlink:href="#DejaVuSans-Bold-50" transform="translate(789.794922 0)"/>
     <use xlink:href="#DejaVuSans-Bold-65" transform="translate(863.085938 0)"/>
     <use xlink:href="#DejaVuSans-Bold-72" transform="translate(930.908203 0)"/>
     <use xlink:href="#DejaVuSans-Bold-66" transform="translate(980.224609 0)"/>
     <use xlink:href="#DejaVuSans-Bold-6f" transform="translate(1023.730469 0)"/>
     <use xlink:href="#DejaVuSans-Bold-72" transform="translate(1092.431641 0)"/>
     <use xlink:href="#DejaVuSans-Bold-6d" transform="translate(1141.748047 0)"/>
     <use xlink:href="#DejaVuSans-Bold-61" transform="translate(1245.947266 0)"/>
     <use xlink:href="#DejaVuSans-Bold-6e" transform="translate(1313.427734 0)"/>
     <use xlink:href="#DejaVuSans-Bold-63" transform="translate(1384.619141 0)"/>
     <use xlink:href="#DejaVuSans-Bold-65" transform="translate(1443.896484 0)"/>
     <use xlink:href="#DejaVuSans-Bold-20" transform="translate(1511.71875 0)"/>
     <use xlink:href="#DejaVuSans-Bold-76" transform="translate(1546.533203 0)"/>
     <use xlink:href="#DejaVuSans-Bold-73" transform="translate(1611.71875 0)"/>
     <use xlink:href="#DejaVuSans-Bold-2e" transform="translate(1671.240234 0)"/>
     <use xlink:href="#DejaVuSans-Bold-20" transform="translate(1709.228516 0)"/>
     <use xlink:href="#DejaVuSans-Bold-4e" transform="translate(1744.042969 0)"/>
     <use xlink:href="#DejaVuSans-Bold-75" transform="translate(1827.734375 0)"/>
     <use xlink:href="#DejaVuSans-Bold-6d" transform="translate(1898.925781 0)"/>
     <use xlink:href="#DejaVuSans-Bold-62" transform="translate(2003.125 0)"/>
     <use xlink:href="#DejaVuSans-Bold-65" transform="translate(2074.707031 0)"/>
     <use xlink:href="#DejaVuSans-Bold-72" transform="translate(2142.529297 0)"/>
     <use xlink:href="#DejaVuSans-Bold-20" transform="translate(2191.845703 0)"/>
     <use xlink:href="#DejaVuSans-Bold-6f" transform="translate(2226.660156 0)"/>
     <use xlink:href="#DejaVuSans-Bold-66" transform="translate(2295.361328 0)"/>
     <use xlink:href="#DejaVuSans-Bold-20" transform="translate(2338.867188 0)"/>
     <use xlink:href="#DejaVuSans-Bold-53" transform="translate(2373.681641 0)"/>
     <use xlink:href="#DejaVuSans-Bold-65" transform="translate(2445.703125 0)"/>
     <use xlink:href="#DejaVuSans-Bold-6c" transform="translate(2513.525391 0)"/>
     <use xlink:href="#DejaVuSans-Bold-65" transform="translate(2547.802734 0)"/>
     <use xlink:href="#DejaVuSans-Bold-63" transform="translate(2615.625 0)"/>
     <use xlink:href="#DejaVuSans-Bold-74" transform="translate(2674.902344 0)"/>
     <use xlink:href="#DejaVuSans-Bold-65" transform="translate(2722.705078 0)"/>
     <use xlink:href="#DejaVuSans-Bold-64" transform="translate(2790.527344 0)"/>
     <use xlink:href="#DejaVuSans-Bold-20" transform="translate(2862.109375 0)"/>
     <use xlink:href="#DejaVuSans-Bold-46" transform="translate(2896.923828 0)"/>
     <use xlink:href="#DejaVuSans-Bold-65" transform="translate(2961.234375 0)"/>
     <use xlink:href="#DejaVuSans-Bold-61" transform="translate(3029.056641 0)"/>
     <use xlink:href="#DejaVuSans-Bold-74" transform="translate(3096.537109 0)"/>
     <use xlink:href="#DejaVuSans-Bold-75" transform="translate(3144.339844 0)"/>
     <use xlink:href="#DejaVuSans-Bold-72" transform="translate(3215.53125 0)"/>
     <use xlink:href="#DejaVuSans-Bold-65" transform="translate(3264.847656 0)"/>
     <use xlink:href="#DejaVuSans-Bold-73" transform="translate(3332.669922 0)"/>
    </g>
    <!-- (Nested CV mean ± 1 SD, 5 outer folds) -->
    <g transform="translate(309.009375 31.635125) scale(0.13 -0.13)">
     <defs>
      <path id="DejaVuSans-Bold-28" d="M 2413 -844 
L 1484 -844 
Q 1006 -72 778 623 
Q 550 1319 550 2003 
Q 550 2688 779 3389 
Q 1009 4091 1484 4856 
L 2413 4856 
Q 2013 4116 1813 3408 
Q 1613 2700 1613 2009 
Q 1613 1319 1811 609 
Q 2009 -100 2413 -844 
z
" transform="scale(0.015625)"/>
      <path id="DejaVuSans-Bold-56" d="M 31 4666 
L 1241 4666 
L 2478 1222 
L 3713 4666 
L 4922 4666 
L 3194 0 
L 1759 0 
L 31 4666 
z
" transform="scale(0.015625)"/>
      <path id="DejaVuSans-Bold-b1" d="M 3053 4013 
L 3053 2906 
L 4684 2906 
L 4684 2169 
L 3053 2169 
L 3053 1063 
L 2309 1063 
L 2309 2169 
L 678 2169 
L 678 2906 
L 2309 2906 
L 2309 4013 
L 3053 4013 
z
M 678 744 
L 4684 744 
L 4684 0 
L 678 0 
L 678 744 
z
" transform="scale(0.015625)"/>
      <path id="DejaVuSans-Bold-31" d="M 750 831 
L 1813 831 
L 1813 3847 
L 722 3622 
L 722 4441 
L 1806 4666 
L 2950 4666 
L 2950 831 
L 4013 831 
L 4013 0 
L 750 0 
L 750 831 
z
" transform="scale(0.015625)"/>
      <path id="DejaVuSans-Bold-44" d="M 1791 3756 
L 1791 909 
L 2222 909 
Q 2959 909 3348 1275 
Q 3738 1641 3738 2338 
Q 3738 3031 3350 3393 
Q 2963 3756 2222 3756 
L 1791 3756 
z
M 588 4666 
L 1856 4666 
Q 2919 4666 3439 4514 
Q 3959 4363 4331 4000 
Q 4659 3684 4818 3271 
Q 4978 2859 4978 2338 
Q 4978 1809 4818 1395 
Q 4659 981 4331 666 
Q 3956 303 3431 151 
Q 2906 0 1856 0 
L 588 0 
L 588 4666 
z
" transform="scale(0.015625)"/>
      <path id="DejaVuSans-Bold-2c" d="M 653 1209 
L 1778 1209 
L 1778 256 
L 1006 -909 
L 341 -909 
L 653 256 
L 653 1209 
z
" transform="scale(0.015625)"/>
      <path id="DejaVuSans-Bold-35" d="M 678 4666 
L 3669 4666 
L 3669 3781 
L 1638 3781 
L 1638 3059 
Q 1775 3097 1914 3117 
Q 2053 3138 2203 3138 
Q 3056 3138 3531 2711 
Q 4006 2284 4006 1522 
Q 4006 766 3489 337 
Q 2972 -91 2053 -91 
Q 1656 -91 1267 -14 
Q 878 63 494 219 
L 494 1166 
Q 875 947 1217 837 
Q 1559 728 1863 728 
Q 2300 728 2551 942 
Q 2803 1156 2803 1522 
Q 2803 1891 2551 2103 
Q 2300 2316 1863 2316 
Q 1603 2316 1309 2248 
Q 1016 2181 678 2041 
L 678 4666 
z
" transform="scale(0.015625)"/>
      <path id="DejaVuSans-Bold-29" d="M 513 -844 
Q 913 -100 1113 609 
Q 1313 1319 1313 2009 
Q 1313 2700 1113 3408 
Q 913 4116 513 4856 
L 1441 4856 
Q 1916 4091 2145 3389 
Q 2375 2688 2375 2003 
Q 2375 1319 2147 623 
Q 1919 -72 1441 -844 
L 513 -844 
z
" transform="scale(0.015625)"/>
     </defs>
     <use xlink:href="#DejaVuSans-Bold-28"/>
     <use xlink:href="#DejaVuSans-Bold-4e" transform="translate(45.703125 0)"/>
     <use xlink:href="#DejaVuSans-Bold-65" transform="translate(129.394531 0)"/>
     <use xlink:href="#DejaVuSans-Bold-73" transform="translate(197.216797 0)"/>
     <use xlink:href="#DejaVuSans-Bold-74" transform="translate(256.738281 0)"/>
     <use xlink:href="#DejaVuSans-Bold-65" transform="translate(304.541016 0)"/>
     <use xlink:href="#DejaVuSans-Bold-64" transform="translate(372.363281 0)"/>
     <use xlink:href="#DejaVuSans-Bold-20" transform="translate(443.945312 0)"/>
     <use xlink:href="#DejaVuSans-Bold-43" transform="translate(478.759766 0)"/>
     <use xlink:href="#DejaVuSans-Bold-56" transform="translate(552.148438 0)"/>
     <use xlink:href="#DejaVuSans-Bold-20" transform="translate(629.541016 0)"/>
     <use xlink:href="#DejaVuSans-Bold-6d" transform="translate(664.355469 0)"/>
     <use xlink:href="#DejaVuSans-Bold-65" transform="translate(768.554688 0)"/>
     <use xlink:href="#DejaVuSans-Bold-61" transform="translate(836.376953 0)"/>
     <use xlink:href="#DejaVuSans-Bold-6e" transform="translate(903.857422 0)"/>
     <use xlink:href="#DejaVuSans-Bold-20" transform="translate(975.048828 0)"/>
     <use xlink:href="#DejaVuSans-Bold-b1" transform="translate(1009.863281 0)"/>
     <use xlink:href="#DejaVuSans-Bold-20" transform="translate(1093.652344 0)"/>
     <use xlink:href="#DejaVuSans-Bold-31" transform="translate(1128.466797 0)"/>
     <use xlink:href="#DejaVuSans-Bold-20" transform="translate(1198.046875 0)"/>
     <use xlink:href="#DejaVuSans-Bold-53" transform="translate(1232.861328 0)"/>
     <use xlink:href="#DejaVuSans-Bold-44" transform="translate(1304.882812 0)"/>
     <use xlink:href="#DejaVuSans-Bold-2c" transform="translate(1387.890625 0)"/>
     <use xlink:href="#DejaVuSans-Bold-20" transform="translate(1425.878906 0)"/>
     <use xlink:href="#DejaVuSans-Bold-35" transform="translate(1460.693359 0)"/>
     <use xlink:href="#DejaVuSans-Bold-20" transform="translate(1530.273438 0)"/>
     <use xlink:href="#DejaVuSans-Bold-6f" transform="translate(1565.087891 0)"/>
     <use xlink:href="#DejaVuSans-Bold-75" transform="translate(1633.789062 0)"/>
     <use xlink:href="#DejaVuSans-Bold-74" transform="translate(1704.980469 0)"/>
     <use xlink:href="#DejaVuSans-Bold-65" transform="translate(1752.783203 0)"/>
     <use xlink:href="#DejaVuSans-Bold-72" transform="translate(1820.605469 0)"/>
     <use xlink:href="#DejaVuSans-Bold-20" transform="translate(1869.921875 0)"/>
     <use xlink:href="#DejaVuSans-Bold-66" transform="translate(1904.736328 0)"/>
     <use xlink:href="#DejaVuSans-Bold-6f" transform="translate(1948.242188 0)"/>
     <use xlink:href="#DejaVuSans-Bold-6c" transform="translate(2016.943359 0)"/>
     <use xlink:href="#DejaVuSans-Bold-64" transform="translate(2051.220703 0)"/>
     <use xlink:href="#DejaVuSans-Bold-73" transform="translate(2122.802734 0)"/>
     <use xlink:href="#DejaVuSans-Bold-29" transform="translate(2182.324219 0)"/>
    </g>
   </g>
   <g id="legend_1">
    <g id="patch_8">
     <path d="M 387.581719 288.308912 
L 520.077031 288.308912 
Q 522.077031 288.308912 522.077031 286.308912 
L 522.077031 228.596412 
Q 522.077031 226.596412 520.077031 226.596412 
L 387.581719 226.596412 
Q 385.581719 226.596412 385.581719 228.596412 
L 385.581719 286.308912 
Q 385.581719 288.308912 387.581719 288.308912 
z
" style="fill: #ffffff; opacity: 0.8; stroke: #cccccc; stroke-linejoin: miter"/>
    </g>
    <g id="line2d_63">
     <path d="M 389.581719 234.69485 
L 399.581719 234.69485 
L 409.581719 234.69485 
" style="fill: none; stroke: #2e75b6; stroke-width: 2; stroke-linecap: square"/>
     <g>
      <use xlink:href="#mbb4a7f51fd" x="399.581719" y="234.69485" style="fill: #2e75b6; stroke: #2e75b6"/>
     </g>
    </g>
    <g id="text_33">
     <!-- Balanced Accuracy -->
     <g transform="translate(417.581719 238.19485) scale(0.1 -0.1)">
      <defs>
       <path id="DejaVuSans-42" d="M 1259 2228 
L 1259 519 
L 2272 519 
Q 2781 519 3026 730 
Q 3272 941 3272 1375 
Q 3272 1813 3026 2020 
Q 2781 2228 2272 2228 
L 1259 2228 
z
M 1259 4147 
L 1259 2741 
L 2194 2741 
Q 2656 2741 2882 2914 
Q 3109 3088 3109 3444 
Q 3109 3797 2882 3972 
Q 2656 4147 2194 4147 
L 1259 4147 
z
M 628 4666 
L 2241 4666 
Q 2963 4666 3353 4366 
Q 3744 4066 3744 3513 
Q 3744 3084 3544 2831 
Q 3344 2578 2956 2516 
Q 3422 2416 3680 2098 
Q 3938 1781 3938 1306 
Q 3938 681 3513 340 
Q 3088 0 2303 0 
L 628 0 
L 628 4666 
z
" transform="scale(0.015625)"/>
       <path id="DejaVuSans-6e" d="M 3513 2113 
L 3513 0 
L 2938 0 
L 2938 2094 
Q 2938 2591 2744 2837 
Q 2550 3084 2163 3084 
Q 1697 3084 1428 2787 
Q 1159 2491 1159 1978 
L 1159 0 
L 581 0 
L 581 3500 
L 1159 3500 
L 1159 2956 
Q 1366 3272 1645 3428 
Q 1925 3584 2291 3584 
Q 2894 3584 3203 3211 
Q 3513 2838 3513 2113 
z
" transform="scale(0.015625)"/>
       <path id="DejaVuSans-41" d="M 2188 4044 
L 1331 1722 
L 3047 1722 
L 2188 4044 
z
M 1831 4666 
L 2547 4666 
L 4325 0 
L 3669 0 
L 3244 1197 
L 1141 1197 
L 716 0 
L 50 0 
L 1831 4666 
z
" transform="scale(0.015625)"/>
       <path id="DejaVuSans-79" d="M 2059 -325 
Q 1816 -950 1584 -1140 
Q 1353 -1331 966 -1331 
L 506 -1331 
L 506 -850 
L 844 -850 
Q 1081 -850 1212 -737 
Q 1344 -625 1503 -206 
L 1606 56 
L 191 3500 
L 800 3500 
L 1894 763 
L 2988 3500 
L 3597 3500 
L 2059 -325 
z
" transform="scale(0.015625)"/>
      </defs>
      <use xlink:href="#DejaVuSans-42"/>
      <use xlink:href="#DejaVuSans-61" transform="translate(68.603516 0)"/>
      <use xlink:href="#DejaVuSans-6c" transform="translate(129.882812 0)"/>
      <use xlink:href="#DejaVuSans-61" transform="translate(157.666016 0)"/>
      <use xlink:href="#DejaVuSans-6e" transform="translate(218.945312 0)"/>
      <use xlink:href="#DejaVuSans-63" transform="translate(282.324219 0)"/>
      <use xlink:href="#DejaVuSans-65" transform="translate(337.304688 0)"/>
      <use xlink:href="#DejaVuSans-64" transform="translate(398.828125 0)"/>
      <use xlink:href="#DejaVuSans-20" transform="translate(462.304688 0)"/>
      <use xlink:href="#DejaVuSans-41" transform="translate(494.091797 0)"/>
      <use xlink:href="#DejaVuSans-63" transform="translate(560.75 0)"/>
      <use xlink:href="#DejaVuSans-63" transform="translate(615.730469 0)"/>
      <use xlink:href="#DejaVuSans-75" transform="translate(670.710938 0)"/>
      <use xlink:href="#DejaVuSans-72" transform="translate(734.089844 0)"/>
      <use xlink:href="#DejaVuSans-61" transform="translate(775.203125 0)"/>
      <use xlink:href="#DejaVuSans-63" transform="translate(836.482422 0)"/>
      <use xlink:href="#DejaVuSans-79" transform="translate(891.462891 0)"/>
     </g>
    </g>
    <g id="line2d_64">
     <path d="M 389.581719 249.372975 
L 399.581719 249.372975 
L 409.581719 249.372975 
" style="fill: none; stroke: #e8702a; stroke-width: 2; stroke-linecap: square"/>
     <g>
      <use xlink:href="#m5b55cf7002" x="399.581719" y="249.372975" style="fill: #e8702a; stroke: #e8702a; stroke-linejoin: miter"/>
     </g>
    </g>
    <g id="text_34">
     <!-- F1 Score (weighted) -->
     <g transform="translate(417.581719 252.872975) scale(0.1 -0.1)">
      <defs>
       <path id="DejaVuSans-77" d="M 269 3500 
L 844 3500 
L 1563 769 
L 2278 3500 
L 2956 3500 
L 3675 769 
L 4391 3500 
L 4966 3500 
L 4050 0 
L 3372 0 
L 2619 2869 
L 1863 0 
L 1184 0 
L 269 3500 
z
" transform="scale(0.015625)"/>
       <path id="DejaVuSans-69" d="M 603 3500 
L 1178 3500 
L 1178 0 
L 603 0 
L 603 3500 
z
M 603 4863 
L 1178 4863 
L 1178 4134 
L 603 4134 
L 603 4863 
z
" transform="scale(0.015625)"/>
       <path id="DejaVuSans-67" d="M 2906 1791 
Q 2906 2416 2648 2759 
Q 2391 3103 1925 3103 
Q 1463 3103 1205 2759 
Q 947 2416 947 1791 
Q 947 1169 1205 825 
Q 1463 481 1925 481 
Q 2391 481 2648 825 
Q 2906 1169 2906 1791 
z
M 3481 434 
Q 3481 -459 3084 -895 
Q 2688 -1331 1869 -1331 
Q 1566 -1331 1297 -1286 
Q 1028 -1241 775 -1147 
L 775 -588 
Q 1028 -725 1275 -790 
Q 1522 -856 1778 -856 
Q 2344 -856 2625 -561 
Q 2906 -266 2906 331 
L 2906 616 
Q 2728 306 2450 153 
Q 2172 0 1784 0 
Q 1141 0 747 490 
Q 353 981 353 1791 
Q 353 2603 747 3093 
Q 1141 3584 1784 3584 
Q 2172 3584 2450 3431 
Q 2728 3278 2906 2969 
L 2906 3500 
L 3481 3500 
L 3481 434 
z
" transform="scale(0.015625)"/>
       <path id="DejaVuSans-68" d="M 3513 2113 
L 3513 0 
L 2938 0 
L 2938 2094 
Q 2938 2591 2744 2837 
Q 2550 3084 2163 3084 
Q 1697 3084 1428 2787 
Q 1159 2491 1159 1978 
L 1159 0 
L 581 0 
L 581 4863 
L 1159 4863 
L 1159 2956 
Q 1366 3272 1645 3428 
Q 1925 3584 2291 3584 
Q 2894 3584 3203 3211 
Q 3513 2838 3513 2113 
z
" transform="scale(0.015625)"/>
      </defs>
      <use xlink:href="#DejaVuSans-46"/>
      <use xlink:href="#DejaVuSans-31" transform="translate(57.519531 0)"/>
      <use xlink:href="#DejaVuSans-20" transform="translate(121.142578 0)"/>
      <use xlink:href="#DejaVuSans-53" transform="translate(152.929688 0)"/>
      <use xlink:href="#DejaVuSans-63" transform="translate(216.40625 0)"/>
      <use xlink:href="#DejaVuSans-6f" transform="translate(271.386719 0)"/>
      <use xlink:href="#DejaVuSans-72" transform="translate(332.568359 0)"/>
      <use xlink:href="#DejaVuSans-65" transform="translate(371.431641 0)"/>
      <use xlink:href="#DejaVuSans-20" transform="translate(432.955078 0)"/>
      <use xlink:href="#DejaVuSans-28" transform="translate(464.742188 0)"/>
      <use xlink:href="#DejaVuSans-77" transform="translate(503.755859 0)"/>
      <use xlink:href="#DejaVuSans-65" transform="translate(585.542969 0)"/>
      <use xlink:href="#DejaVuSans-69" transform="translate(647.066406 0)"/>
      <use xlink:href="#DejaVuSans-67" transform="translate(674.849609 0)"/>
      <use xlink:href="#DejaVuSans-68" transform="translate(738.326172 0)"/>
      <use xlink:href="#DejaVuSans-74" transform="translate(801.705078 0)"/>
      <use xlink:href="#DejaVuSans-65" transform="translate(840.914062 0)"/>
      <use xlink:href="#DejaVuSans-64" transform="translate(902.4375 0)"/>
      <use xlink:href="#DejaVuSans-29" transform="translate(965.914062 0)"/>
     </g>
    </g>
    <g id="line2d_65">
     <path d="M 389.581719 264.0511 
L 399.581719 264.0511 
L 409.581719 264.0511 
" style="fill: none; stroke: #2ca02c; stroke-width: 2; stroke-linecap: square"/>
     <g>
      <use xlink:href="#mba4aa4e8eb" x="399.581719" y="264.0511" style="fill: #2ca02c; stroke: #2ca02c; stroke-linejoin: miter"/>
     </g>
    </g>
    <g id="text_35">
     <!-- ROC AUC -->
     <g transform="translate(417.581719 267.5511) scale(0.1 -0.1)">
      <defs>
       <path id="DejaVuSans-52" d="M 2841 2188 
Q 3044 2119 3236 1894 
Q 3428 1669 3622 1275 
L 4263 0 
L 3584 0 
L 2988 1197 
Q 2756 1666 2539 1819 
Q 2322 1972 1947 1972 
L 1259 1972 
L 1259 0 
L 628 0 
L 628 4666 
L 2053 4666 
Q 2853 4666 3247 4331 
Q 3641 3997 3641 3322 
Q 3641 2881 3436 2590 
Q 3231 2300 2841 2188 
z
M 1259 4147 
L 1259 2491 
L 2053 2491 
Q 2509 2491 2742 2702 
Q 2975 2913 2975 3322 
Q 2975 3731 2742 3939 
Q 2509 4147 2053 4147 
L 1259 4147 
z
" transform="scale(0.015625)"/>
       <path id="DejaVuSans-4f" d="M 2522 4238 
Q 1834 4238 1429 3725 
Q 1025 3213 1025 2328 
Q 1025 1447 1429 934 
Q 1834 422 2522 422 
Q 3209 422 3611 934 
Q 4013 1447 4013 2328 
Q 4013 3213 3611 3725 
Q 3209 4238 2522 4238 
z
M 2522 4750 
Q 3503 4750 4090 4092 
Q 4678 3434 4678 2328 
Q 4678 1225 4090 567 
Q 3503 -91 2522 -91 
Q 1538 -91 948 565 
Q 359 1222 359 2328 
Q 359 3434 948 4092 
Q 1538 4750 2522 4750 
z
" transform="scale(0.015625)"/>
       <path id="DejaVuSans-43" d="M 4122 4306 
L 4122 3641 
Q 3803 3938 3442 4084 
Q 3081 4231 2675 4231 
Q 1875 4231 1450 3742 
Q 1025 3253 1025 2328 
Q 1025 1406 1450 917 
Q 1875 428 2675 428 
Q 3081 428 3442 575 
Q 3803 722 4122 1019 
L 4122 359 
Q 3791 134 3420 21 
Q 3050 -91 2638 -91 
Q 1578 -91 968 557 
Q 359 1206 359 2328 
Q 359 3453 968 4101 
Q 1578 4750 2638 4750 
Q 3056 4750 3426 4639 
Q 3797 4528 4122 4306 
z
" transform="scale(0.015625)"/>
       <path id="DejaVuSans-55" d="M 556 4666 
L 1191 4666 
L 1191 1831 
Q 1191 1081 1462 751 
Q 1734 422 2344 422 
Q 2950 422 3222 751 
Q 3494 1081 3494 1831 
L 3494 4666 
L 4128 4666 
L 4128 1753 
Q 4128 841 3676 375 
Q 3225 -91 2344 -91 
Q 1459 -91 1007 375 
Q 556 841 556 1753 
L 556 4666 
z
" transform="scale(0.015625)"/>
      </defs>
      <use xlink:href="#DejaVuSans-52"/>
      <use xlink:href="#DejaVuSans-4f" transform="translate(69.482422 0)"/>
      <use xlink:href="#DejaVuSans-43" transform="translate(148.193359 0)"/>
      <use xlink:href="#DejaVuSans-20" transform="translate(218.017578 0)"/>
      <use xlink:href="#DejaVuSans-41" transform="translate(249.804688 0)"/>
      <use xlink:href="#DejaVuSans-55" transform="translate(318.212891 0)"/>
      <use xlink:href="#DejaVuSans-43" transform="translate(391.40625 0)"/>
     </g>
    </g>
    <g id="patch_9">
     <path d="M 389.581719 282.229225 
L 409.581719 282.229225 
L 409.581719 275.229225 
L 389.581719 275.229225 
z
" style="fill: #ffd700; opacity: 0.15; stroke: #ffd700; stroke-linejoin: miter"/>
    </g>
    <g id="text_36">
     <!-- Best (N=8,000) -->
     <g transform="translate(417.581719 282.229225) scale(0.1 -0.1)">
      <defs>
       <path id="DejaVuSans-3d" d="M 678 2906 
L 4684 2906 
L 4684 2381 
L 678 2381 
L 678 2906 
z
M 678 1631 
L 4684 1631 
L 4684 1100 
L 678 1100 
L 678 1631 
z
" transform="scale(0.015625)"/>
      </defs>
      <use xlink:href="#DejaVuSans-42"/>
      <use xlink:href="#DejaVuSans-65" transform="translate(68.603516 0)"/>
      <use xlink:href="#DejaVuSans-73" transform="translate(130.126953 0)"/>
      <use xlink:href="#DejaVuSans-74" transform="translate(182.226562 0)"/>
      <use xlink:href="#DejaVuSans-20" transform="translate(221.435547 0)"/>
      <use xlink:href="#DejaVuSans-28" transform="translate(253.222656 0)"/>
      <use xlink:href="#DejaVuSans-4e" transform="translate(292.236328 0)"/>
      <use xlink:href="#DejaVuSans-3d" transform="translate(367.041016 0)"/>
      <use xlink:href="#DejaVuSans-38" transform="translate(450.830078 0)"/>
      <use xlink:href="#DejaVuSans-2c" transform="translate(514.453125 0)"/>
      <use xlink:href="#DejaVuSans-30" transform="translate(546.240234 0)"/>
      <use xlink:href="#DejaVuSans-30" transform="translate(609.863281 0)"/>
      <use xlink:href="#DejaVuSans-30" transform="translate(673.486328 0)"/>
      <use xlink:href="#DejaVuSans-29" transform="translate(737.109375 0)"/>
     </g>
    </g>
   </g>
  </g>
 </g>
 <defs>
  <clipPath id="pd68d722f66">
   <rect x="58.441875" y="37.635125" width="790.775" height="255.673787"/>
  </clipPath>
 </defs>
</svg>
